<svg width="188" height="47" viewBox="0 0 188 47" fill="none" xmlns="http://www.w3.org/2000/svg">
<path d="M12.9531 46.4375C7.32812 44.8594 4.51562 41.2266 4.51562 35.5391V30.8984C4.51562 27.7422 3.25 26.1641 0.71875 26.1641V20.8438C3.25 20.8438 4.51562 19.2578 4.51562 16.0859V11.1641C4.5625 8.35156 5.28906 6.07812 6.69531 4.34375C8.11719 2.60938 10.2031 1.35156 12.9531 0.570312L14.4297 4.69531C12.4609 5.44531 11.4375 7.54688 11.3594 11V16.0859C11.3594 19.5859 9.91406 22.0547 7.02344 23.4922C9.91406 24.9297 11.3594 27.4062 11.3594 30.9219V35.9844C11.4375 39.4375 12.4609 41.5391 14.4297 42.2891L12.9531 46.4375ZM33.4997 3.09091H23.3761L15.9579 38H26.2997C34.0234 38 37.2524 33.8109 40.0888 20.7636C42.8815 7.49818 41.2234 3.09091 33.4997 3.09091ZM37.427 20.3273C35.027 31.8036 32.2779 35.5127 26.6052 35.5127H19.2306L25.5143 5.57818H33.1943C38.9106 5.57818 39.827 9.06909 37.427 20.3273ZM53.0265 35.9927C50.2774 35.9927 47.9647 33.8545 47.9647 30.8C47.9647 30.32 47.9647 29.84 48.0083 29.36C54.4665 27.44 65.0265 24.9091 65.0265 16.1818C65.0265 12.2109 62.7574 10.4218 59.0919 10.4218C51.8047 10.4218 46.481 17.2727 45.521 27.3527C43.9065 27.8764 42.6847 28.4436 42.1174 29.1418L43.3392 31.3236C43.7319 30.9309 44.4301 30.5382 45.3465 30.1891V30.7127C45.3465 35.3818 48.5319 38.6109 52.6774 38.6109C56.2556 38.6109 60.5756 36.8655 63.4119 34.2036L62.1028 31.9782C59.6592 34.3782 55.9938 35.9927 53.0265 35.9927ZM58.961 12.9091C60.7501 12.9091 62.4083 14.0436 62.4083 16.3127C62.4083 22.8582 54.2919 24.8655 48.2265 26.5673C49.3174 18.3636 53.5065 12.9091 58.961 12.9091ZM76.6551 38H79.3605C84.2914 28.88 91.9278 20.1091 94.1096 11.0327H91.3169C89.7896 18.5382 83.2005 26.1745 78.9241 33.8109L76.0005 11.0327H73.2951L76.6551 38ZM121.273 5.57818L121.753 3.09091H102.727L95.3091 38H114.335L114.858 35.5127H98.5818L101.636 20.8073H112.153L112.676 18.2764H102.247L104.865 5.57818H121.273ZM137.221 10.4218C134.516 10.4218 131.33 11.7309 129.978 14.0873C130.283 11.3818 128.843 10.4218 126.836 10.4218C125.221 10.4218 123.476 11.0327 122.647 11.9927L123.869 14.0436C124.479 13.3455 125.265 12.9091 125.963 12.9091C126.792 12.9091 127.359 13.3891 127.359 14.1309C127.359 14.3491 127.316 14.6545 127.272 15.0036L125.527 23.4255C125.396 23.7745 125.352 24.08 125.309 24.3418C125.178 24.7782 125.09 25.1709 125.047 25.4764L120.683 45.9418H123.389L125.483 36.4291C125.876 37.9564 128.538 38.6109 131.636 38.6109C137.309 38.6109 141.847 32.9818 143.549 24.6909C145.774 13.9564 144.596 10.4218 137.221 10.4218ZM141.018 24.3418C139.49 31.4109 136.043 36.1236 131.767 36.1236C126.923 36.1236 125.701 35.4691 127.447 27.0036L128.145 23.3818C129.847 15.1345 132.858 12.9091 137.09 12.9091C142.239 12.9091 142.894 15.5273 141.018 24.3418ZM160.588 6.32C162.464 6.32 163.119 5.79636 163.512 4.05091C163.904 2.13091 163.25 1.38909 161.155 1.38909C159.279 1.38909 158.624 1.91273 158.275 3.61454C157.839 5.57818 158.494 6.32 160.588 6.32ZM161.243 38.6109C164.384 38.6109 166.174 37.52 168.704 34.16L166.61 32.72C164.69 35.3382 163.512 36.1236 161.374 36.1236C156.966 36.1236 155.919 33.8982 157.534 26.5673L159.759 16.4436C160.414 12.9091 157.926 10.9891 152.821 11.0327L152.166 13.52C156.748 13.4764 157.403 14.7418 157.01 17.0109L154.872 26.5673C152.864 35.6873 154.523 38.6109 161.243 38.6109ZM173.57 42.2891C175.539 41.5391 176.562 39.4375 176.641 35.9844V30.8984C176.641 27.3828 178.094 24.9141 181 23.4922C178.094 22.0703 176.641 19.6016 176.641 16.0859V11C176.562 7.54688 175.539 5.44531 173.57 4.69531L175.047 0.570312C177.844 1.35156 179.945 2.63281 181.352 4.41406C182.758 6.17969 183.469 8.5 183.484 11.375V16.0859C183.484 19.2578 184.75 20.8438 187.281 20.8438V26.1641C184.75 26.1641 183.484 27.7344 183.484 30.875V35.8672C183.375 41.3672 180.562 44.8906 175.047 46.4375L173.57 42.2891Z" fill="black"/>
</svg>
