<svg width="105" height="122" viewBox="0 0 105 122" fill="none" xmlns="http://www.w3.org/2000/svg">
<g clip-path="url(#clip0)">
<path d="M52.7811 121.398C81.5428 121.398 104.859 94.2219 104.859 60.6988C104.859 27.1758 81.5428 0 52.7811 0C24.0193 0 0.703339 27.1758 0.703339 60.6988C0.703339 94.2219 24.0193 121.398 52.7811 121.398Z" fill="#62607D"/>
<path d="M82.3991 42.3605L66.806 60.8507C66.7786 60.8813 66.7568 60.918 66.7419 60.9587C66.727 60.9994 66.7193 61.0432 66.7193 61.0875C66.7193 61.1317 66.727 61.1755 66.7419 61.2162C66.7568 61.2569 66.7786 61.2937 66.806 61.3243L77.7467 74.8838C78.0084 75.1911 78.1864 75.5817 78.2584 76.0066C78.3303 76.4315 78.293 76.8716 78.1511 77.2718C78.0092 77.6721 77.769 78.0145 77.4607 78.2562C77.1524 78.4979 76.7897 78.628 76.4182 78.6304C75.9182 78.6291 75.4388 78.3978 75.0845 77.9867L64.2011 64.4758C64.1455 64.412 64.0706 64.3763 63.9927 64.3763C63.9147 64.3763 63.8398 64.412 63.7843 64.4758L61.1325 67.597C60.0467 68.8911 58.75 69.9193 57.3185 70.6211C55.887 71.3229 54.3497 71.6841 52.7967 71.6836C51.2143 71.6751 49.6493 71.2991 48.193 70.5776C46.7367 69.8561 45.4184 68.8036 44.3151 67.4816L41.7674 64.4455C41.7119 64.3817 41.637 64.3459 41.559 64.3459C41.4811 64.3459 41.4062 64.3817 41.3507 64.4455L30.4933 77.926C30.3186 78.13 30.1111 78.2918 29.8827 78.4022C29.6543 78.5126 29.4095 78.5695 29.1622 78.5695C28.9149 78.5695 28.6701 78.5126 28.4417 78.4022C28.2133 78.2918 28.0058 78.13 27.8311 77.926C27.6555 77.7228 27.516 77.4811 27.4209 77.2148C27.3258 76.9485 27.2768 76.663 27.2768 76.3745C27.2768 76.0861 27.3258 75.8005 27.4209 75.5342C27.516 75.2679 27.6555 75.0262 27.8311 74.823L38.7301 61.2939C38.7785 61.2279 38.8051 61.1439 38.8051 61.0571C38.8051 60.9703 38.7785 60.8863 38.7301 60.8203L23.137 42.3301C23.0969 42.2831 23.0458 42.2511 22.99 42.2381C22.9343 42.2251 22.8765 42.2317 22.824 42.2571C22.7715 42.2825 22.7267 42.3255 22.6952 42.3807C22.6637 42.4358 22.6471 42.5007 22.6473 42.5669V79.5655C22.6514 80.9958 23.1407 82.366 24.0084 83.3774C24.8761 84.3887 26.0517 84.959 27.2788 84.9638H78.2677C79.4948 84.959 80.6704 84.3887 81.5381 83.3774C82.4058 82.366 82.8951 80.9958 82.8992 79.5655V42.5973C82.9018 42.5284 82.8861 42.4603 82.8541 42.4023C82.8222 42.3443 82.7756 42.2992 82.7208 42.2733C82.666 42.2474 82.6057 42.2418 82.5481 42.2574C82.4905 42.273 82.4384 42.309 82.3991 42.3605Z" fill="#63FFDA"/>
<path d="M52.7811 67.2934C53.8381 67.3054 54.8863 67.0698 55.8637 66.6004C56.841 66.1309 57.7274 65.4374 58.4702 64.5608L81.18 37.618C80.3738 36.8396 79.3613 36.4105 78.3145 36.4035H27.2892C26.242 36.4075 25.2287 36.837 24.4238 37.618L47.1388 64.5608C47.875 65.4324 48.7536 66.1233 49.7227 66.5926C50.6918 67.0619 51.7317 67.3002 52.7811 67.2934Z" fill="#63A1FF"/>
<path opacity="0.1" d="M52.1246 0.00608059C41.8183 7.58472e-05 31.7419 3.55709 23.1704 10.2271C14.5988 16.8972 7.91721 26.3805 3.97077 37.4774C0.024328 48.5744 -1.00959 60.7863 0.999813 72.5682C3.00922 84.3502 7.97164 95.1728 15.2593 103.667C22.547 112.161 31.8325 117.945 41.941 120.287C52.0496 122.629 62.527 121.424 72.0478 116.824C81.5686 112.224 89.7051 104.437 95.4277 94.4462C101.15 84.4557 104.202 72.7113 104.197 60.6988C104.19 44.6046 98.7018 29.1718 88.9378 17.7915C79.1738 6.4111 65.933 0.0141257 52.1246 0.00608059ZM52.1246 113.328C43.194 113.328 34.464 110.241 27.0385 104.458C19.613 98.6751 13.8255 90.4556 10.4079 80.839C6.99035 71.2223 6.09616 60.6404 7.83843 50.4315C9.5807 40.2225 13.8812 30.8449 20.196 23.4847C26.5109 16.1244 34.5565 11.112 43.3155 9.08136C52.0745 7.05067 61.1534 8.09288 69.4042 12.0762C77.655 16.0596 84.707 22.8051 89.6686 31.4599C94.6302 40.1146 97.2784 50.2899 97.2784 60.6988C97.2784 74.6568 92.5211 88.0431 84.0531 97.9129C75.5851 107.783 64.1001 113.328 52.1246 113.328Z" fill="black"/>
</g>
<defs>
<clipPath id="clip0">
<rect width="105" height="122" fill="white"/>
</clipPath>
</defs>
</svg>
