<svg width="180" height="60" viewBox="0 0 180 60" fill="none" xmlns="http://www.w3.org/2000/svg">
<rect width="180" height="60" fill="#E5E5E5"/>
<path d="M2 0H178V58H2V0Z" fill="white"/>
<g filter="url(#filter0_d)">
<path d="M27.488 20.808L11.888 29.928L27.488 38.856L24.032 44.28L5.36 32.664V27.24L24.128 15.576L27.488 20.808ZM39.3558 43.4945C37.294 43.4945 35.5594 41.8909 35.5594 39.6C35.5594 39.24 35.5594 38.88 35.5922 38.52C40.4358 37.08 48.3558 35.1818 48.3558 28.6364C48.3558 25.6582 46.654 24.3164 43.9049 24.3164C38.4394 24.3164 34.4467 29.4545 33.7267 37.0145C32.5158 37.4073 31.5994 37.8327 31.174 38.3564L32.0903 39.9927C32.3849 39.6982 32.9085 39.4036 33.5958 39.1418V39.5345C33.5958 43.0364 35.9849 45.4582 39.094 45.4582C41.7776 45.4582 45.0176 44.1491 47.1449 42.1527L46.1631 40.4836C44.3303 42.2836 41.5813 43.4945 39.3558 43.4945ZM43.8067 26.1818C45.1485 26.1818 46.3922 27.0327 46.3922 28.7345C46.3922 33.6436 40.3049 35.1491 35.7558 36.4255C36.574 30.2727 39.7158 26.1818 43.8067 26.1818ZM63.1972 24.3164C61.1681 24.3164 58.779 25.2982 57.7645 27.0655C57.9936 25.0364 56.9136 24.3164 55.4081 24.3164C54.1972 24.3164 52.8881 24.7745 52.2663 25.4945L53.1827 27.0327C53.6409 26.5091 54.23 26.1818 54.7536 26.1818C55.3754 26.1818 55.8009 26.5418 55.8009 27.0982C55.8009 27.2618 55.7681 27.4909 55.7354 27.7527L54.4263 34.0691C54.3281 34.3309 54.2954 34.56 54.2627 34.7564C54.1645 35.0836 54.099 35.3782 54.0663 35.6073L50.7936 50.9564H52.8227L54.3936 43.8218C54.6881 44.9673 56.6845 45.4582 59.0081 45.4582C63.2627 45.4582 66.6663 41.2364 67.9427 35.0182C69.6118 26.9673 68.7281 24.3164 63.1972 24.3164ZM66.0445 34.7564C64.899 40.0582 62.3136 43.5927 59.1063 43.5927C55.4736 43.5927 54.5572 43.1018 55.8663 36.7527L56.39 34.0364C57.6663 27.8509 59.9245 26.1818 63.099 26.1818C66.9609 26.1818 67.4518 28.1455 66.0445 34.7564ZM80.7223 21.24C82.1296 21.24 82.6205 20.8473 82.915 19.5382C83.2096 18.0982 82.7187 17.5418 81.1478 17.5418C79.7405 17.5418 79.2496 17.9345 78.9878 19.2109C78.6605 20.6836 79.1514 21.24 80.7223 21.24ZM81.2132 45.4582C83.5696 45.4582 84.9114 44.64 86.8096 42.12L85.2387 41.04C83.7987 43.0036 82.915 43.5927 81.3114 43.5927C78.0059 43.5927 77.2205 41.9236 78.4314 36.4255L80.1005 28.8327C80.5914 26.1818 78.7259 24.7418 74.8968 24.7745L74.4059 26.64C77.8423 26.6073 78.3332 27.5564 78.0387 29.2582L76.435 36.4255C74.9296 43.2655 76.1732 45.4582 81.2132 45.4582ZM103.32 18.8182H95.7274L90.1637 45H97.9201C103.713 45 106.135 41.8582 108.262 32.0727C110.356 22.1236 109.113 18.8182 103.32 18.8182ZM106.266 31.7455C104.466 40.3527 102.404 43.1345 98.1492 43.1345H92.6183L97.331 20.6836H103.091C107.378 20.6836 108.066 23.3018 106.266 31.7455ZM117.965 43.4945C115.903 43.4945 114.169 41.8909 114.169 39.6C114.169 39.24 114.169 38.88 114.202 38.52C119.045 37.08 126.965 35.1818 126.965 28.6364C126.965 25.6582 125.263 24.3164 122.514 24.3164C117.049 24.3164 113.056 29.4545 112.336 37.0145C111.125 37.4073 110.209 37.8327 109.783 38.3564L110.7 39.9927C110.994 39.6982 111.518 39.4036 112.205 39.1418V39.5345C112.205 43.0364 114.594 45.4582 117.703 45.4582C120.387 45.4582 123.627 44.1491 125.754 42.1527L124.772 40.4836C122.94 42.2836 120.191 43.4945 117.965 43.4945ZM122.416 26.1818C123.758 26.1818 125.002 27.0327 125.002 28.7345C125.002 33.6436 118.914 35.1491 114.365 36.4255C115.183 30.2727 118.325 26.1818 122.416 26.1818ZM135.687 45H137.716C141.414 38.16 147.141 31.5818 148.778 24.7745H146.683C145.538 30.4036 140.596 36.1309 137.388 41.8582L135.196 24.7745H133.167L135.687 45ZM174.183 27.192V32.664L155.463 44.28L152.055 39.096L167.607 29.928L152.055 21.048L155.415 15.576L174.183 27.192Z" fill="black"/>
<path d="M27.488 20.808L27.9927 21.6713L28.8929 21.145L28.3294 20.2676L27.488 20.808ZM11.888 29.928L11.3833 29.0647L9.89086 29.9372L11.3913 30.7959L11.888 29.928ZM27.488 38.856L28.3314 39.3934L28.8949 38.509L27.9847 37.9881L27.488 38.856ZM24.032 44.28L23.5038 45.1291L24.3438 45.6517L24.8754 44.8174L24.032 44.28ZM5.36 32.664H4.36V33.2196L4.83177 33.5131L5.36 32.664ZM5.36 27.24L4.83215 26.3907L4.36 26.6841V27.24H5.36ZM24.128 15.576L24.9694 15.0356L24.437 14.2066L23.6002 14.7267L24.128 15.576ZM26.9833 19.9447L11.3833 29.0647L12.3927 30.7913L27.9927 21.6713L26.9833 19.9447ZM11.3913 30.7959L26.9913 39.7239L27.9847 37.9881L12.3847 29.0601L11.3913 30.7959ZM26.6446 38.3186L23.1886 43.7426L24.8754 44.8174L28.3314 39.3934L26.6446 38.3186ZM24.5602 43.4309L5.88823 31.8149L4.83177 33.5131L23.5038 45.1291L24.5602 43.4309ZM6.36 32.664V27.24H4.36V32.664H6.36ZM5.88785 28.0893L24.6559 16.4253L23.6002 14.7267L4.83215 26.3907L5.88785 28.0893ZM23.2866 16.1164L26.6466 21.3484L28.3294 20.2676L24.9694 15.0356L23.2866 16.1164ZM35.5922 38.52L35.3072 37.5615L34.6576 37.7546L34.5963 38.4295L35.5922 38.52ZM33.7267 37.0145L34.0352 37.9658L34.6599 37.7632L34.7222 37.1094L33.7267 37.0145ZM31.174 38.3564L30.3979 37.7258L29.9698 38.2527L30.3015 38.845L31.174 38.3564ZM32.0903 39.9927L31.2178 40.4813L31.8633 41.634L32.7974 40.6998L32.0903 39.9927ZM33.5958 39.1418H34.5958V37.6908L33.2398 38.2073L33.5958 39.1418ZM47.1449 42.1527L47.8292 42.8819L48.4122 42.3348L48.0068 41.6457L47.1449 42.1527ZM46.1631 40.4836L47.025 39.9766L46.3758 38.873L45.4624 39.7702L46.1631 40.4836ZM35.7558 36.4255L34.7645 36.2936L34.5644 37.7983L36.0259 37.3883L35.7558 36.4255ZM39.3558 42.4945C37.8407 42.4945 36.5594 41.333 36.5594 39.6H34.5594C34.5594 42.4488 36.7473 44.4945 39.3558 44.4945V42.4945ZM36.5594 39.6C36.5594 39.2325 36.5601 38.9179 36.5881 38.6105L34.5963 38.4295C34.5588 38.8421 34.5594 39.2475 34.5594 39.6H36.5594ZM35.8771 39.4785C38.2411 38.7757 41.5741 37.906 44.2853 36.3616C47.0314 34.7974 49.3558 32.4142 49.3558 28.6364H47.3558C47.3558 31.404 45.7202 33.2426 43.2954 34.6238C40.8357 36.0249 37.7868 36.8243 35.3072 37.5615L35.8771 39.4785ZM49.3558 28.6364C49.3558 26.9568 48.8708 25.5737 47.8384 24.6237C46.8209 23.6874 45.4274 23.3164 43.9049 23.3164V25.3164C45.1314 25.3164 45.9634 25.6163 46.4841 26.0954C46.9899 26.5608 47.3558 27.3378 47.3558 28.6364H49.3558ZM43.9049 23.3164C37.6599 23.3164 33.4702 29.1606 32.7312 36.9197L34.7222 37.1094C35.4232 29.7484 39.219 25.3164 43.9049 25.3164V23.3164ZM33.4182 36.0633C32.7882 36.2677 32.2013 36.4909 31.7019 36.7453C31.2138 36.994 30.7374 37.3079 30.3979 37.7258L31.9501 38.987C32.036 38.8812 32.2305 38.7206 32.6097 38.5274C32.9776 38.34 33.4543 38.1542 34.0352 37.9658L33.4182 36.0633ZM30.3015 38.845L31.2178 40.4813L32.9628 39.5041L32.0465 37.8678L30.3015 38.845ZM32.7974 40.6998C32.9421 40.5552 33.3079 40.3216 33.9518 40.0763L33.2398 38.2073C32.5091 38.4857 31.8277 38.8411 31.3832 39.2856L32.7974 40.6998ZM32.5958 39.1418V39.5345H34.5958V39.1418H32.5958ZM32.5958 39.5345C32.5958 43.5347 35.3801 46.4582 39.094 46.4582V44.4582C36.5896 44.4582 34.5958 42.538 34.5958 39.5345H32.5958ZM39.094 46.4582C42.0476 46.4582 45.5284 45.0412 47.8292 42.8819L46.4606 41.4235C44.5069 43.257 41.5076 44.4582 39.094 44.4582V46.4582ZM48.0068 41.6457L47.025 39.9766L45.3011 40.9907L46.283 42.6597L48.0068 41.6457ZM45.4624 39.7702C43.7871 41.4156 41.2805 42.4945 39.3558 42.4945V44.4945C41.882 44.4945 44.8736 43.1517 46.8638 41.1971L45.4624 39.7702ZM43.8067 27.1818C44.2742 27.1818 44.6715 27.3303 44.9383 27.5674C45.1872 27.7887 45.3922 28.1469 45.3922 28.7345H47.3922C47.3922 27.6204 46.9753 26.7022 46.267 26.0726C45.5765 25.4588 44.681 25.1818 43.8067 25.1818V27.1818ZM45.3922 28.7345C45.3922 30.6678 44.2348 32.001 42.298 33.066C40.3323 34.147 37.8064 34.8115 35.4857 35.4626L36.0259 37.3883C38.2542 36.7631 41.0466 36.0366 43.2617 34.8185C45.5059 33.5845 47.3922 31.7104 47.3922 28.7345H45.3922ZM36.7471 36.5573C37.1395 33.6061 38.0805 31.2276 39.3422 29.6118C40.5936 28.0091 42.1313 27.1818 43.8067 27.1818V25.1818C41.3912 25.1818 39.3125 26.4 37.7658 28.3809C36.2292 30.3488 35.1903 33.0921 34.7645 36.2936L36.7471 36.5573ZM57.7645 27.0655L56.7708 26.9533L58.6318 27.5633L57.7645 27.0655ZM52.2663 25.4945L51.5095 24.8409L51.0381 25.3868L51.4072 26.0063L52.2663 25.4945ZM53.1827 27.0327L52.3236 27.5445L53.0284 28.7276L53.9353 27.6912L53.1827 27.0327ZM55.7354 27.7527L56.7146 27.9557L56.7227 27.9165L56.7277 27.8768L55.7354 27.7527ZM54.4263 34.0691L55.3627 34.4202L55.3898 34.3478L55.4055 34.272L54.4263 34.0691ZM54.2627 34.7564L55.2205 35.0437L55.2387 34.9831L55.2491 34.9208L54.2627 34.7564ZM54.0663 35.6073L55.0443 35.8158L55.0514 35.7825L55.0563 35.7487L54.0663 35.6073ZM50.7936 50.9564L49.8156 50.7478L49.5579 51.9564H50.7936V50.9564ZM52.8227 50.9564V51.9564H53.6265L53.7993 51.1714L52.8227 50.9564ZM54.3936 43.8218L55.3621 43.5728L53.417 43.6068L54.3936 43.8218ZM67.9427 35.0182L66.9635 34.8152L66.9631 34.8171L67.9427 35.0182ZM66.0445 34.7564L67.022 34.9675L67.0226 34.9646L66.0445 34.7564ZM55.8663 36.7527L56.8458 36.9547L56.8482 36.942L55.8663 36.7527ZM56.39 34.0364L55.4105 33.8343L55.408 33.8471L56.39 34.0364ZM63.1972 23.3164C60.9412 23.3164 58.147 24.3906 56.8973 26.5676L58.6318 27.5633C59.4111 26.2058 61.3951 25.3164 63.1972 25.3164V23.3164ZM58.7582 27.1776C58.8928 25.9853 58.6639 24.9498 57.9472 24.2263C57.2526 23.525 56.293 23.3164 55.4081 23.3164V25.3164C56.0288 25.3164 56.3619 25.4678 56.5263 25.6337C56.6687 25.7775 56.8653 26.1165 56.7708 26.9533L58.7582 27.1776ZM55.4081 23.3164C54.6836 23.3164 53.9368 23.4522 53.2713 23.6969C52.6167 23.9375 51.9672 24.311 51.5095 24.8409L53.0231 26.1482C53.1873 25.9581 53.5032 25.7425 53.9614 25.574C54.4085 25.4096 54.9218 25.3164 55.4081 25.3164V23.3164ZM51.4072 26.0063L52.3236 27.5445L54.0418 26.5209L53.1254 24.9827L51.4072 26.0063ZM53.9353 27.6912C54.2799 27.2973 54.617 27.1818 54.7536 27.1818V25.1818C53.843 25.1818 53.0018 25.7209 52.4301 26.3742L53.9353 27.6912ZM54.7536 27.1818C54.8765 27.1818 54.8894 27.2164 54.8555 27.1871C54.8386 27.1724 54.8216 27.1506 54.8103 27.1253C54.7994 27.1004 54.8009 27.0881 54.8009 27.0982H56.8009C56.8009 26.5469 56.5811 26.036 56.1653 25.6757C55.7633 25.3272 55.2525 25.1818 54.7536 25.1818V27.1818ZM54.8009 27.0982C54.8009 27.1808 54.7819 27.3188 54.7431 27.6287L56.7277 27.8768C56.7544 27.6631 56.8009 27.3428 56.8009 27.0982H54.8009ZM54.7562 27.5498L53.4471 33.8661L55.4055 34.272L56.7146 27.9557L54.7562 27.5498ZM53.49 33.718C53.3515 34.0873 53.3055 34.4167 53.2763 34.592L55.2491 34.9208C55.2853 34.7033 55.3048 34.5745 55.3627 34.4202L53.49 33.718ZM53.3049 34.469C53.1956 34.8332 53.1176 35.1773 53.0764 35.4659L55.0563 35.7487C55.0805 35.579 55.1334 35.3341 55.2205 35.0437L53.3049 34.469ZM53.0883 35.3987L49.8156 50.7478L51.7716 51.1649L55.0443 35.8158L53.0883 35.3987ZM50.7936 51.9564H52.8227V49.9564H50.7936V51.9564ZM53.7993 51.1714L55.3702 44.0368L53.417 43.6068L51.8461 50.7413L53.7993 51.1714ZM53.4251 44.0709C53.7072 45.1681 54.7297 45.7306 55.6336 46.0215C56.5969 46.3314 57.7916 46.4582 59.0081 46.4582V44.4582C57.9011 44.4582 56.9357 44.3395 56.2463 44.1176C55.4975 43.8767 55.3745 43.621 55.3621 43.5728L53.4251 44.0709ZM59.0081 46.4582C61.4981 46.4582 63.6734 45.2149 65.3574 43.2139C67.0338 41.2218 68.2601 38.445 68.9223 35.2193L66.9631 34.8171C66.3489 37.8095 65.2352 40.2528 63.8271 41.9261C62.4265 43.5905 60.7727 44.4582 59.0081 44.4582V46.4582ZM68.9219 35.2212C69.3433 33.1884 69.6129 31.4543 69.682 29.9969C69.7507 28.5483 69.6263 27.2912 69.1914 26.2597C68.7391 25.1868 67.9762 24.4195 66.916 23.9439C65.8961 23.4865 64.6418 23.3164 63.1972 23.3164V25.3164C64.5181 25.3164 65.4484 25.4776 66.0975 25.7688C66.7064 26.0419 67.0972 26.4405 67.3485 27.0366C67.6173 27.6743 67.7465 28.5894 67.6843 29.9022C67.6224 31.2062 67.3766 32.8225 66.9635 34.8152L68.9219 35.2212ZM65.0671 34.5452C64.5145 37.1027 63.6287 39.1596 62.5562 40.5527C61.4872 41.9413 60.3031 42.5927 59.1063 42.5927V44.5927C61.1168 44.5927 62.8291 43.4769 64.141 41.7727C65.4494 40.0731 66.429 37.7119 67.0219 34.9675L65.0671 34.5452ZM59.1063 42.5927C58.1927 42.5927 57.5693 42.5584 57.1278 42.4471C56.7302 42.3469 56.5898 42.2135 56.5031 42.0604C56.3824 41.8477 56.2699 41.4194 56.3085 40.5441C56.3463 39.6866 56.5213 38.528 56.8457 36.9547L54.8869 36.5508C54.5568 38.152 54.3554 39.4357 54.3104 40.4559C54.2662 41.4583 54.3643 42.3432 54.7632 43.0468C55.196 43.8102 55.8841 44.1962 56.6391 44.3865C57.3501 44.5657 58.2036 44.5927 59.1063 44.5927V42.5927ZM56.8482 36.942L57.3719 34.2257L55.408 33.8471L54.8844 36.5634L56.8482 36.942ZM57.3693 34.2385C57.9934 31.214 58.8276 29.4661 59.7607 28.4751C60.6454 27.5355 61.7099 27.1818 63.099 27.1818V25.1818C61.3137 25.1818 59.6618 25.6627 58.3046 27.104C56.996 28.4939 56.0629 30.6732 55.4106 33.8343L57.3693 34.2385ZM63.099 27.1818C64.0019 27.1818 64.5725 27.3006 64.9343 27.4839C65.2467 27.6422 65.4581 27.8743 65.597 28.3C65.7512 28.773 65.8117 29.4833 65.7244 30.5457C65.6381 31.5961 65.4152 32.9097 65.0664 34.5482L67.0226 34.9646C67.3774 33.2975 67.6209 31.8866 67.7177 30.7095C67.8134 29.5445 67.7737 28.5243 67.4984 27.68C67.2077 26.7885 66.6602 26.1164 65.8384 25.6999C65.0661 25.3085 64.1271 25.1818 63.099 25.1818V27.1818ZM82.915 19.5382L83.8906 19.7577L83.8928 19.7482L83.8947 19.7386L82.915 19.5382ZM78.9878 19.2109L79.9639 19.4278L79.9657 19.4199L79.9674 19.4119L78.9878 19.2109ZM86.8096 42.12L87.6083 42.7217L88.2366 41.8876L87.3761 41.296L86.8096 42.12ZM85.2387 41.04L85.8052 40.216L85.0059 39.6664L84.4323 40.4486L85.2387 41.04ZM78.4314 36.4255L79.408 36.6405L79.4081 36.6402L78.4314 36.4255ZM80.1005 28.8327L81.0772 29.0474L81.0807 29.0312L81.0838 29.0148L80.1005 28.8327ZM74.8969 24.7745L74.8883 23.7746L74.1242 23.7811L73.9298 24.5201L74.8969 24.7745ZM74.4059 26.64L73.4389 26.3855L73.1055 27.6524L74.4155 27.64L74.4059 26.64ZM78.0387 29.2582L79.0145 29.4765L79.0199 29.4527L79.024 29.4287L78.0387 29.2582ZM76.435 36.4255L75.4592 36.2071L75.4584 36.2105L76.435 36.4255ZM80.7223 22.24C81.4788 22.24 82.2414 22.1443 82.8512 21.6683C83.4685 21.1865 83.7299 20.4722 83.8906 19.7577L81.9394 19.3187C81.8056 19.9133 81.6743 20.0499 81.6207 20.0917C81.5596 20.1394 81.3731 20.24 80.7223 20.24V22.24ZM83.8947 19.7386C84.0547 18.9566 84.0939 18.0315 83.4799 17.3374C82.8898 16.6703 81.9724 16.5418 81.1478 16.5418V18.5418C81.4904 18.5418 81.7143 18.5732 81.8543 18.6131C81.9873 18.6509 82.0003 18.6833 81.9819 18.6626C81.9325 18.6067 82.0699 18.6798 81.9353 19.3378L83.8947 19.7386ZM81.1478 16.5418C80.3931 16.5418 79.6303 16.637 79.0243 17.1084C78.4041 17.5907 78.1528 18.3046 78.0082 19.01L79.9674 19.4119C80.0845 18.8408 80.2095 18.7202 80.2522 18.6871C80.3088 18.643 80.4952 18.5418 81.1478 18.5418V16.5418ZM78.0116 18.994C77.8358 19.7851 77.7766 20.7229 78.3853 21.4301C78.9733 22.1132 79.9016 22.24 80.7223 22.24V20.24C80.3793 20.24 80.1566 20.2085 80.0185 20.1689C79.8878 20.1314 79.8797 20.1005 79.9011 20.1254C79.9262 20.1545 79.9051 20.1575 79.8953 20.055C79.8844 19.9391 79.8943 19.7412 79.9639 19.4278L78.0116 18.994ZM81.2132 46.4582C82.5197 46.4582 83.6348 46.2283 84.6971 45.5919C85.7298 44.9733 86.6326 44.017 87.6083 42.7217L86.0108 41.5183C85.0883 42.743 84.3712 43.4558 83.6693 43.8762C82.997 44.279 82.2631 44.4582 81.2132 44.4582V46.4582ZM87.3761 41.296L85.8052 40.216L84.6721 41.864L86.243 42.944L87.3761 41.296ZM84.4323 40.4486C83.7276 41.4096 83.2337 41.9254 82.7896 42.2155C82.3894 42.4768 81.9709 42.5927 81.3114 42.5927V44.5927C82.2555 44.5927 83.0806 44.4141 83.8832 43.89C84.6418 43.3946 85.3098 42.6341 86.0451 41.6314L84.4323 40.4486ZM81.3114 42.5927C80.5522 42.5927 80.05 42.494 79.7194 42.3398C79.4265 42.2032 79.2349 42.0094 79.1014 41.6878C78.9523 41.3282 78.863 40.7714 78.9045 39.9132C78.9457 39.0633 79.1109 37.9895 79.408 36.6405L77.4548 36.2104C77.1464 37.6105 76.9557 38.8072 76.9069 39.8165C76.8584 40.8177 76.945 41.7091 77.2541 42.4541C77.5788 43.2369 78.1276 43.8041 78.8738 44.1523C79.5823 44.4828 80.4178 44.5927 81.3114 44.5927V42.5927ZM79.4081 36.6402L81.0772 29.0474L79.1238 28.618L77.4547 36.2108L79.4081 36.6402ZM81.0838 29.0148C81.3832 27.3979 80.9675 25.9684 79.7326 25.0079C78.5861 24.1162 76.8894 23.7575 74.8883 23.7746L74.9054 25.7745C76.7334 25.7589 77.884 26.1038 78.5047 26.5866C79.0371 27.0007 79.3087 27.6166 79.1172 28.6506L81.0838 29.0148ZM73.9298 24.5201L73.4389 26.3855L75.373 26.8945L75.8639 25.029L73.9298 24.5201ZM74.4155 27.64C75.2361 27.6321 75.8314 27.6841 76.2578 27.7743C76.6868 27.8651 76.8823 27.9815 76.9671 28.0549C77.0532 28.1294 77.1907 28.2941 77.0533 29.0876L79.024 29.4287C79.1812 28.5204 79.2205 27.3597 78.2756 26.5424C77.8451 26.1699 77.2919 25.9488 76.6716 25.8176C76.0487 25.6859 75.294 25.6315 74.3964 25.64L74.4155 27.64ZM77.0628 29.0398L75.4592 36.2071L77.4109 36.6438L79.0145 29.4765L77.0628 29.0398ZM75.4584 36.2105C75.0752 37.9514 74.8556 39.445 74.8379 40.7084C74.8202 41.968 75.0017 43.0724 75.4884 43.9795C76.5206 45.9038 78.6204 46.4582 81.2132 46.4582V44.4582C78.766 44.4582 77.724 43.9162 77.2508 43.0341C76.9847 42.5381 76.8226 41.8117 76.8377 40.7365C76.8527 39.665 77.0421 38.3195 77.4117 36.6404L75.4584 36.2105ZM95.7274 18.8182V17.8182H94.9175L94.7492 18.6103L95.7274 18.8182ZM90.1637 45L89.1856 44.7921L88.9289 46H90.1637V45ZM108.262 32.0727L109.239 32.2852L109.24 32.2787L108.262 32.0727ZM106.266 31.7455L105.288 31.537L105.287 31.5408L106.266 31.7455ZM92.6183 43.1345L91.6396 42.9291L91.3866 44.1345H92.6183V43.1345ZM97.331 20.6836V19.6836H96.5191L96.3523 20.4782L97.331 20.6836ZM103.32 17.8182H95.7274V19.8182H103.32V17.8182ZM94.7492 18.6103L89.1856 44.7921L91.1419 45.2079L96.7055 19.026L94.7492 18.6103ZM90.1637 46H97.9201V44H90.1637V46ZM97.9201 46C101.035 46 103.415 45.1358 105.249 42.8279C107 40.6223 108.174 37.1857 109.239 32.2852L107.285 31.8603C106.223 36.7452 105.122 39.7722 103.683 41.5839C102.325 43.2933 100.598 44 97.9201 44V46ZM109.24 32.2787C109.769 29.7674 110.095 27.6383 110.187 25.8555C110.277 24.0812 110.14 22.5808 109.686 21.3646C109.218 20.1136 108.424 19.1892 107.291 18.6021C106.192 18.0333 104.847 17.8182 103.32 17.8182V19.8182C104.689 19.8182 105.672 20.0162 106.371 20.3781C107.034 20.7217 107.506 21.2455 107.812 22.0645C108.131 22.9183 108.273 24.1097 108.189 25.7533C108.106 27.3885 107.802 29.4036 107.283 31.8667L109.24 32.2787ZM105.287 31.5408C104.389 35.833 103.456 38.4973 102.316 40.0844C101.761 40.8562 101.172 41.3528 100.525 41.6647C99.8733 41.9788 99.1036 42.1345 98.1492 42.1345V44.1345C99.322 44.1345 100.406 43.9426 101.393 43.4661C102.386 42.9874 103.222 42.2506 103.94 41.2511C105.345 39.2954 106.342 36.2652 107.244 31.9502L105.287 31.5408ZM98.1492 42.1345H92.6183V44.1345H98.1492V42.1345ZM93.597 43.34L98.3097 20.8891L96.3523 20.4782L91.6396 42.9291L93.597 43.34ZM97.331 21.6836H103.091V19.6836H97.331V21.6836ZM103.091 21.6836C104.08 21.6836 104.721 21.8382 105.14 22.0858C105.521 22.3107 105.815 22.6681 105.999 23.3199C106.192 24.0065 106.253 24.987 106.135 26.3703C106.019 27.7428 105.734 29.4432 105.288 31.537L107.244 31.9539C107.697 29.8259 108.001 28.0327 108.128 26.5395C108.254 25.0571 108.212 23.7998 107.923 22.7765C107.625 21.7182 107.055 20.8934 106.157 20.3635C105.298 19.8563 104.245 19.6836 103.091 19.6836V21.6836ZM114.202 38.52L113.917 37.5615L113.267 37.7546L113.206 38.4295L114.202 38.52ZM112.336 37.0145L112.645 37.9658L113.269 37.7632L113.332 37.1094L112.336 37.0145ZM109.783 38.3564L109.007 37.7258L108.579 38.2527L108.911 38.845L109.783 38.3564ZM110.7 39.9927L109.827 40.4813L110.473 41.634L111.407 40.6998L110.7 39.9927ZM112.205 39.1418H113.205V37.6908L111.849 38.2073L112.205 39.1418ZM125.754 42.1527L126.439 42.8819L127.022 42.3348L126.616 41.6457L125.754 42.1527ZM124.772 40.4836L125.634 39.9766L124.985 38.873L124.072 39.7702L124.772 40.4836ZM114.365 36.4255L113.374 36.2936L113.174 37.7983L114.635 37.3883L114.365 36.4255ZM117.965 42.4945C116.45 42.4945 115.169 41.333 115.169 39.6H113.169C113.169 42.4488 115.357 44.4945 117.965 44.4945V42.4945ZM115.169 39.6C115.169 39.2325 115.169 38.9179 115.197 38.6105L113.206 38.4295C113.168 38.8421 113.169 39.2475 113.169 39.6H115.169ZM114.487 39.4785C116.851 38.7757 120.183 37.906 122.895 36.3616C125.641 34.7974 127.965 32.4142 127.965 28.6364H125.965C125.965 31.404 124.33 33.2426 121.905 34.6238C119.445 36.0249 116.396 36.8243 113.917 37.5615L114.487 39.4785ZM127.965 28.6364C127.965 26.9568 127.48 25.5737 126.448 24.6237C125.43 23.6874 124.037 23.3164 122.514 23.3164V25.3164C123.741 25.3164 124.573 25.6163 125.093 26.0954C125.599 26.5608 125.965 27.3378 125.965 28.6364H127.965ZM122.514 23.3164C116.269 23.3164 112.08 29.1606 111.341 36.9197L113.332 37.1094C114.033 29.7484 117.828 25.3164 122.514 25.3164V23.3164ZM112.028 36.0633C111.398 36.2677 110.811 36.4909 110.311 36.7453C109.823 36.994 109.347 37.3079 109.007 37.7258L110.559 38.987C110.645 38.8812 110.84 38.7206 111.219 38.5274C111.587 38.34 112.064 38.1542 112.645 37.9658L112.028 36.0633ZM108.911 38.845L109.827 40.4813L111.572 39.5041L110.656 37.8678L108.911 38.845ZM111.407 40.6998C111.551 40.5552 111.917 40.3216 112.561 40.0763L111.849 38.2073C111.119 38.4857 110.437 38.8411 109.993 39.2856L111.407 40.6998ZM111.205 39.1418V39.5345H113.205V39.1418H111.205ZM111.205 39.5345C111.205 43.5347 113.99 46.4582 117.703 46.4582V44.4582C115.199 44.4582 113.205 42.538 113.205 39.5345H111.205ZM117.703 46.4582C120.657 46.4582 124.138 45.0412 126.439 42.8819L125.07 41.4235C123.116 43.257 120.117 44.4582 117.703 44.4582V46.4582ZM126.616 41.6457L125.634 39.9766L123.911 40.9907L124.892 42.6597L126.616 41.6457ZM124.072 39.7702C122.396 41.4156 119.89 42.4945 117.965 42.4945V44.4945C120.491 44.4945 123.483 43.1517 125.473 41.1971L124.072 39.7702ZM122.416 27.1818C122.884 27.1818 123.281 27.3303 123.548 27.5674C123.797 27.7887 124.002 28.1469 124.002 28.7345H126.002C126.002 27.6204 125.585 26.7022 124.876 26.0726C124.186 25.4588 123.29 25.1818 122.416 25.1818V27.1818ZM124.002 28.7345C124.002 30.6678 122.844 32.001 120.907 33.066C118.942 34.147 116.416 34.8115 114.095 35.4626L114.635 37.3883C116.864 36.7631 119.656 36.0366 121.871 34.8185C124.115 33.5845 126.002 31.7104 126.002 28.7345H124.002ZM115.356 36.5573C115.749 33.6061 116.69 31.2276 117.952 29.6118C119.203 28.0091 120.741 27.1818 122.416 27.1818V25.1818C120.001 25.1818 117.922 26.4 116.375 28.3809C114.839 30.3488 113.8 33.0921 113.374 36.2936L115.356 36.5573ZM135.687 45L134.694 45.1236L134.803 46H135.687V45ZM137.716 45V46H138.312L138.595 45.4756L137.716 45ZM148.778 24.7745L149.75 25.0083L150.046 23.7745H148.778V24.7745ZM146.683 24.7745V23.7745H145.866L145.703 24.5751L146.683 24.7745ZM137.388 41.8582L136.397 41.9855L136.782 44.9879L138.261 42.3468L137.388 41.8582ZM135.196 24.7745L136.188 24.6472L136.076 23.7745H135.196V24.7745ZM133.167 24.7745V23.7745H132.034L132.174 24.8982L133.167 24.7745ZM135.687 46H137.716V44H135.687V46ZM138.595 45.4756C140.425 42.0907 142.728 38.8207 144.867 35.4058C146.974 32.0426 148.891 28.58 149.75 25.0083L147.805 24.5408C147.027 27.7763 145.263 31.0065 143.172 34.3442C141.114 37.6302 138.704 41.0693 136.836 44.5244L138.595 45.4756ZM148.778 23.7745H146.683V25.7745H148.778V23.7745ZM145.703 24.5751C145.168 27.2023 143.732 29.9125 141.961 32.7501C140.231 35.5209 138.13 38.4878 136.516 41.3696L138.261 42.3468C139.854 39.5013 141.827 36.7409 143.657 33.809C145.445 30.9439 147.052 27.9759 147.663 24.9739L145.703 24.5751ZM138.38 41.7309L136.188 24.6472L134.204 24.9019L136.397 41.9855L138.38 41.7309ZM135.196 23.7745H133.167V25.7745H135.196V23.7745ZM132.174 24.8982L134.694 45.1236L136.679 44.8764L134.159 24.6509L132.174 24.8982ZM174.183 27.192H175.183V26.6349L174.71 26.3417L174.183 27.192ZM174.183 32.664L174.711 33.5137L175.183 33.2204V32.664H174.183ZM155.463 44.28L154.628 44.8293L155.163 45.6433L155.991 45.1297L155.463 44.28ZM152.055 39.096L151.547 38.2345L150.643 38.7678L151.22 39.6453L152.055 39.096ZM167.607 29.928L168.115 30.7895L169.6 29.9142L168.103 29.0596L167.607 29.928ZM152.055 21.048L151.203 20.5247L150.663 21.4045L151.559 21.9164L152.055 21.048ZM155.415 15.576L155.942 14.7257L155.088 14.1975L154.563 15.0527L155.415 15.576ZM173.183 27.192V32.664H175.183V27.192H173.183ZM173.656 31.8143L154.936 43.4303L155.991 45.1297L174.711 33.5137L173.656 31.8143ZM156.299 43.7307L152.891 38.5467L151.22 39.6453L154.628 44.8293L156.299 43.7307ZM152.563 39.9575L168.115 30.7895L167.099 29.0665L151.547 38.2345L152.563 39.9575ZM168.103 29.0596L152.551 20.1796L151.559 21.9164L167.111 30.7964L168.103 29.0596ZM152.907 21.5713L156.267 16.0993L154.563 15.0527L151.203 20.5247L152.907 21.5713ZM154.889 16.4263L173.657 28.0423L174.71 26.3417L155.942 14.7257L154.889 16.4263Z" fill="black"/>
</g>
<defs>
<filter id="filter0_d" x="0.359985" y="14.1975" width="178.823" height="45.7588" filterUnits="userSpaceOnUse" color-interpolation-filters="sRGB">
<feFlood flood-opacity="0" result="BackgroundImageFix"/>
<feColorMatrix in="SourceAlpha" type="matrix" values="0 0 0 0 0 0 0 0 0 0 0 0 0 0 0 0 0 0 127 0"/>
<feOffset dy="4"/>
<feGaussianBlur stdDeviation="2"/>
<feColorMatrix type="matrix" values="0 0 0 0 0 0 0 0 0 0 0 0 0 0 0 0 0 0 0.25 0"/>
<feBlend mode="normal" in2="BackgroundImageFix" result="effect1_dropShadow"/>
<feBlend mode="normal" in="SourceGraphic" in2="effect1_dropShadow" result="shape"/>
</filter>
</defs>
</svg>
