<svg width="90" height="60" viewBox="0 0 90 60" fill="none" xmlns="http://www.w3.org/2000/svg">
<g filter="url(#filter0_d)">
<path d="M13.336 20.368H24.856V25.84H13.336V34.336H27.208V40H5.464V6.736H27.208L26.392 12.352H13.336V20.368ZM47.2533 13.648C50.4533 13.648 52.8053 14.832 54.3093 17.2C55.8133 19.536 56.5653 22.864 56.5653 27.184C56.5653 29.808 56.1653 32.16 55.3653 34.24C54.5973 36.288 53.4773 37.904 52.0053 39.088C50.5333 40.24 48.7893 40.816 46.7733 40.816C44.3093 40.816 42.2933 39.936 40.7253 38.176V49.84L33.1413 50.656V14.512H39.8613L40.1973 17.344C41.1893 16.096 42.2933 15.168 43.5093 14.56C44.7573 13.952 46.0053 13.648 47.2533 13.648ZM44.9013 19.264C43.3013 19.264 41.9093 20.256 40.7253 22.24V32.992C41.2693 33.76 41.8293 34.336 42.4053 34.72C43.0133 35.072 43.7013 35.248 44.4693 35.248C45.8773 35.248 46.9333 34.624 47.6373 33.376C48.3733 32.096 48.7413 30.064 48.7413 27.28C48.7413 24.272 48.4213 22.192 47.7813 21.04C47.1413 19.856 46.1813 19.264 44.9013 19.264ZM72.9145 1.168C74.2265 1.168 75.2985 1.584 76.1305 2.416C76.9625 3.216 77.3785 4.224 77.3785 5.44C77.3785 6.688 76.9625 7.712 76.1305 8.512C75.2985 9.312 74.2265 9.712 72.9145 9.712C71.6025 9.712 70.5145 9.312 69.6505 8.512C68.8185 7.68 68.4025 6.656 68.4025 5.44C68.4025 4.224 68.8185 3.216 69.6505 2.416C70.5145 1.584 71.6025 1.168 72.9145 1.168ZM77.4745 34.816H84.0025V40H62.6905V34.816H69.8905V19.696H62.9305V14.512H77.4745V34.816Z" fill="#1ED925"/>
<path d="M13.336 20.368H12.336V21.368H13.336V20.368ZM24.856 20.368H25.856V19.368H24.856V20.368ZM24.856 25.84V26.84H25.856V25.84H24.856ZM13.336 25.84V24.84H12.336V25.84H13.336ZM13.336 34.336H12.336V35.336H13.336V34.336ZM27.208 34.336H28.208V33.336H27.208V34.336ZM27.208 40V41H28.208V40H27.208ZM5.464 40H4.464V41H5.464V40ZM5.464 6.736V5.736H4.464V6.736H5.464ZM27.208 6.736L28.1976 6.87979L28.3638 5.736H27.208V6.736ZM26.392 12.352V13.352H27.2572L27.3816 12.4958L26.392 12.352ZM13.336 12.352V11.352H12.336V12.352H13.336ZM13.336 21.368H24.856V19.368H13.336V21.368ZM23.856 20.368V25.84H25.856V20.368H23.856ZM24.856 24.84H13.336V26.84H24.856V24.84ZM12.336 25.84V34.336H14.336V25.84H12.336ZM13.336 35.336H27.208V33.336H13.336V35.336ZM26.208 34.336V40H28.208V34.336H26.208ZM27.208 39H5.464V41H27.208V39ZM6.464 40V6.736H4.464V40H6.464ZM5.464 7.736H27.208V5.736H5.464V7.736ZM26.2184 6.59221L25.4024 12.2082L27.3816 12.4958L28.1976 6.87979L26.2184 6.59221ZM26.392 11.352H13.336V13.352H26.392V11.352ZM12.336 12.352V20.368H14.336V12.352H12.336ZM54.3093 17.2L53.4651 17.7361L53.4684 17.7413L54.3093 17.2ZM55.3653 34.24L54.4319 33.881L54.4289 33.8889L55.3653 34.24ZM52.0053 39.088L52.6216 39.8756L52.632 39.8672L52.0053 39.088ZM40.7253 38.176L41.4719 37.5108L39.7253 35.5503V38.176H40.7253ZM40.7253 49.84L40.8322 50.8343L41.7253 50.7382V49.84H40.7253ZM33.1413 50.656H32.1413V51.7694L33.2482 51.6503L33.1413 50.656ZM33.1413 14.512V13.512H32.1413V14.512H33.1413ZM39.8613 14.512L40.8543 14.3942L40.7496 13.512H39.8613V14.512ZM40.1973 17.344L39.2042 17.4618L39.4869 19.8447L40.9801 17.9662L40.1973 17.344ZM43.5093 14.56L43.0713 13.661L43.062 13.6656L43.5093 14.56ZM40.7253 22.24L39.8665 21.7275L39.7253 21.9643V22.24H40.7253ZM40.7253 32.992H39.7253V33.3103L39.9092 33.57L40.7253 32.992ZM42.4053 34.72L41.8506 35.5521L41.8769 35.5696L41.9042 35.5854L42.4053 34.72ZM47.6373 33.376L46.7703 32.8775L46.7663 32.8847L47.6373 33.376ZM47.7813 21.04L46.9015 21.5155L46.9071 21.5256L47.7813 21.04ZM47.2533 14.648C50.1678 14.648 52.1731 15.7018 53.4651 17.7361L55.1534 16.6639C53.4374 13.9622 50.7387 12.648 47.2533 12.648V14.648ZM53.4684 17.7413C54.8258 19.8495 55.5653 22.9578 55.5653 27.184H57.5653C57.5653 22.7702 56.8007 19.2225 55.1501 16.6587L53.4684 17.7413ZM55.5653 27.184C55.5653 29.7066 55.1808 31.9339 54.4319 33.881L56.2986 34.599C57.1497 32.3861 57.5653 29.9094 57.5653 27.184H55.5653ZM54.4289 33.8889C53.7138 35.7959 52.69 37.2539 51.3785 38.3088L52.632 39.8672C54.2645 38.5541 55.4807 36.7801 56.3016 34.5911L54.4289 33.8889ZM51.3889 38.3005C50.1071 39.3037 48.5846 39.816 46.7733 39.816V41.816C48.9939 41.816 50.9594 41.1763 52.6216 39.8755L51.3889 38.3005ZM46.7733 39.816C44.5798 39.816 42.8406 39.0471 41.4719 37.5108L39.9786 38.8412C41.7459 40.8249 44.0387 41.816 46.7733 41.816V39.816ZM39.7253 38.176V49.84H41.7253V38.176H39.7253ZM40.6183 48.8457L33.0343 49.6617L33.2482 51.6503L40.8322 50.8343L40.6183 48.8457ZM34.1413 50.656V14.512H32.1413V50.656H34.1413ZM33.1413 15.512H39.8613V13.512H33.1413V15.512ZM38.8682 14.6298L39.2042 17.4618L41.1903 17.2262L40.8543 14.3942L38.8682 14.6298ZM40.9801 17.9662C41.8969 16.8128 42.8915 15.9869 43.9565 15.4544L43.062 13.6656C41.695 14.3491 40.4816 15.3792 39.4144 16.7218L40.9801 17.9662ZM43.9472 15.459C45.0743 14.9099 46.1734 14.648 47.2533 14.648V12.648C45.8371 12.648 44.4402 12.9941 43.0713 13.661L43.9472 15.459ZM44.9013 18.264C42.8061 18.264 41.1431 19.5885 39.8665 21.7275L41.584 22.7525C42.6754 20.9235 43.7964 20.264 44.9013 20.264V18.264ZM39.7253 22.24V32.992H41.7253V22.24H39.7253ZM39.9092 33.57C40.5002 34.4044 41.1432 35.0805 41.8506 35.5521L42.96 33.8879C42.5153 33.5915 42.0383 33.1156 41.5413 32.414L39.9092 33.57ZM41.9042 35.5854C42.6784 36.0337 43.5422 36.248 44.4693 36.248V34.248C43.8603 34.248 43.3481 34.1103 42.9063 33.8546L41.9042 35.5854ZM44.4693 36.248C46.2459 36.248 47.6308 35.4227 48.5082 33.8673L46.7663 32.8847C46.2357 33.8253 45.5086 34.248 44.4693 34.248V36.248ZM48.5042 33.8745C49.3749 32.3601 49.7413 30.109 49.7413 27.28H47.7413C47.7413 30.019 47.3716 31.8319 46.7703 32.8775L48.5042 33.8745ZM49.7413 27.28C49.7413 24.2678 49.4322 21.9526 48.6554 20.5544L46.9071 21.5256C47.4103 22.4314 47.7413 24.2762 47.7413 27.28H49.7413ZM48.661 20.5645C48.2738 19.8482 47.7617 19.2611 47.1061 18.8568C46.4479 18.4509 45.701 18.264 44.9013 18.264V20.264C45.3815 20.264 45.7546 20.3731 46.0564 20.5592C46.3608 20.7469 46.6487 21.0478 46.9015 21.5155L48.661 20.5645ZM76.1305 2.416L75.4234 3.12311L75.4303 3.13004L75.4374 3.13683L76.1305 2.416ZM76.1305 8.512L76.8236 9.23283L76.8236 9.23283L76.1305 8.512ZM69.6505 8.512L68.9434 9.21911L68.957 9.2327L68.9711 9.24576L69.6505 8.512ZM69.6505 2.416L70.3436 3.13683L70.3441 3.13632L69.6505 2.416ZM77.4745 34.816H76.4745V35.816H77.4745V34.816ZM84.0025 34.816H85.0025V33.816H84.0025V34.816ZM84.0025 40V41H85.0025V40H84.0025ZM62.6905 40H61.6905V41H62.6905V40ZM62.6905 34.816V33.816H61.6905V34.816H62.6905ZM69.8905 34.816V35.816H70.8905V34.816H69.8905ZM69.8905 19.696H70.8905V18.696H69.8905V19.696ZM62.9305 19.696H61.9305V20.696H62.9305V19.696ZM62.9305 14.512V13.512H61.9305V14.512H62.9305ZM77.4745 14.512H78.4745V13.512H77.4745V14.512ZM72.9145 2.168C73.9947 2.168 74.8013 2.501 75.4234 3.12311L76.8376 1.70889C75.7957 0.666993 74.4583 0.167999 72.9145 0.167999V2.168ZM75.4374 3.13683C76.0619 3.73729 76.3785 4.47973 76.3785 5.44H78.3785C78.3785 3.96827 77.8631 2.6947 76.8236 1.69517L75.4374 3.13683ZM76.3785 5.44C76.3785 6.44053 76.0563 7.19607 75.4374 7.79117L76.8236 9.23283C77.8687 8.22793 78.3785 6.93546 78.3785 5.44H76.3785ZM75.4374 7.79117C74.8175 8.3872 74.0063 8.712 72.9145 8.712V10.712C74.4467 10.712 75.7795 10.2368 76.8236 9.23283L75.4374 7.79117ZM72.9145 8.712C71.8233 8.712 70.9874 8.38704 70.3299 7.77824L68.9711 9.24576C70.0416 10.237 71.3817 10.712 72.9145 10.712V8.712ZM70.3576 7.80489C69.72 7.16733 69.4025 6.4007 69.4025 5.44H67.4025C67.4025 6.9113 67.917 8.19267 68.9434 9.21911L70.3576 7.80489ZM69.4025 5.44C69.4025 4.47973 69.7191 3.73729 70.3436 3.13683L68.9574 1.69517C67.9179 2.6947 67.4025 3.96827 67.4025 5.44H69.4025ZM70.3441 3.13632C71.0035 2.50136 71.8346 2.168 72.9145 2.168V0.167999C71.3704 0.167999 70.0255 0.666634 68.9569 1.69568L70.3441 3.13632ZM77.4745 35.816H84.0025V33.816H77.4745V35.816ZM83.0025 34.816V40H85.0025V34.816H83.0025ZM84.0025 39H62.6905V41H84.0025V39ZM63.6905 40V34.816H61.6905V40H63.6905ZM62.6905 35.816H69.8905V33.816H62.6905V35.816ZM70.8905 34.816V19.696H68.8905V34.816H70.8905ZM69.8905 18.696H62.9305V20.696H69.8905V18.696ZM63.9305 19.696V14.512H61.9305V19.696H63.9305ZM62.9305 15.512H77.4745V13.512H62.9305V15.512ZM76.4745 14.512V34.816H78.4745V14.512H76.4745Z" fill="black"/>
</g>
<defs>
<filter id="filter0_d" x="0.463989" y="0.167999" width="88.5385" height="59.6014" filterUnits="userSpaceOnUse" color-interpolation-filters="sRGB">
<feFlood flood-opacity="0" result="BackgroundImageFix"/>
<feColorMatrix in="SourceAlpha" type="matrix" values="0 0 0 0 0 0 0 0 0 0 0 0 0 0 0 0 0 0 127 0"/>
<feOffset dy="4"/>
<feGaussianBlur stdDeviation="2"/>
<feColorMatrix type="matrix" values="0 0 0 0 0 0 0 0 0 0 0 0 0 0 0 0 0 0 0.25 0"/>
<feBlend mode="normal" in2="BackgroundImageFix" result="effect1_dropShadow"/>
<feBlend mode="normal" in="SourceGraphic" in2="effect1_dropShadow" result="shape"/>
</filter>
</defs>
</svg>
