<svg width="208" height="47" viewBox="0 0 208 47" fill="none" xmlns="http://www.w3.org/2000/svg">
<g filter="url(#filter0_d)">
<path d="M18.812 5.72C17.612 5.72 16.724 5.888 16.148 6.224C15.596 6.536 15.368 7.124 15.464 7.988L16.004 13.316C16.028 13.532 16.04 13.832 16.04 14.216C16.04 15.8 15.548 17 14.564 17.816C13.604 18.608 12.224 19.136 10.424 19.4C12.32 19.688 13.736 20.216 14.672 20.984C15.608 21.752 16.076 22.928 16.076 24.512C16.076 24.68 16.052 25.004 16.004 25.484L15.464 30.812C15.368 31.652 15.608 32.24 16.184 32.576C16.76 32.912 17.636 33.08 18.812 33.08V37.04C15.74 37.04 13.52 36.62 12.152 35.78C10.808 34.94 10.136 33.536 10.136 31.568C10.136 31.328 10.16 30.944 10.208 30.416L10.748 25.232L10.784 24.764C10.784 23.66 10.34 22.88 9.452 22.424C8.588 21.944 7.364 21.704 5.78 21.704V17.096C9.116 17.096 10.784 16.076 10.784 14.036L10.748 13.568L10.208 8.42C10.16 7.844 10.136 7.436 10.136 7.196C10.136 5.228 10.82 3.836 12.188 3.02C13.556 2.18 15.764 1.76 18.812 1.76V5.72ZM53.7464 30.4945C51.6846 30.4945 49.9501 28.8909 49.9501 26.6C49.9501 26.24 49.9501 25.88 49.9828 25.52C54.8264 24.08 62.7464 22.1818 62.7464 15.6364C62.7464 12.6582 61.0446 11.3164 58.2955 11.3164C52.8301 11.3164 48.8373 16.4545 48.1173 24.0145C46.9064 24.4073 45.9901 24.8327 45.5646 25.3564L46.481 26.9927C46.7755 26.6982 47.2991 26.4036 47.9864 26.1418V26.5345C47.9864 30.0364 50.3755 32.4582 53.4846 32.4582C56.1682 32.4582 59.4082 31.1491 61.5355 29.1527L60.5537 27.4836C58.721 29.2836 55.9719 30.4945 53.7464 30.4945ZM58.1973 13.1818C59.5391 13.1818 60.7828 14.0327 60.7828 15.7345C60.7828 20.6436 54.6955 22.1491 50.1464 23.4255C50.9646 17.2727 54.1064 13.1818 58.1973 13.1818ZM77.5879 11.3164C75.5588 11.3164 73.1697 12.2982 72.1551 14.0655C72.3842 12.0364 71.3042 11.3164 69.7988 11.3164C68.5879 11.3164 67.2788 11.7745 66.6569 12.4945L67.5733 14.0327C68.0315 13.5091 68.6206 13.1818 69.1442 13.1818C69.766 13.1818 70.1915 13.5418 70.1915 14.0982C70.1915 14.2618 70.1588 14.4909 70.126 14.7527L68.8169 21.0691C68.7188 21.3309 68.686 21.56 68.6533 21.7564C68.5551 22.0836 68.4897 22.3782 68.4569 22.6073L65.1842 37.9564H67.2133L68.7842 30.8218C69.0788 31.9673 71.0751 32.4582 73.3988 32.4582C77.6533 32.4582 81.0569 28.2364 82.3333 22.0182C84.0024 13.9673 83.1188 11.3164 77.5879 11.3164ZM80.4351 21.7564C79.2897 27.0582 76.7042 30.5927 73.4969 30.5927C69.8642 30.5927 68.9479 30.1018 70.2569 23.7527L70.7806 21.0364C72.0569 14.8509 74.3151 13.1818 77.4897 13.1818C81.3515 13.1818 81.8424 15.1455 80.4351 21.7564ZM95.1129 8.24C96.5202 8.24 97.0111 7.84727 97.3057 6.53818C97.6002 5.09818 97.1093 4.54182 95.5384 4.54182C94.1311 4.54182 93.6402 4.93455 93.3784 6.21091C93.0511 7.68364 93.542 8.24 95.1129 8.24ZM95.6038 32.4582C97.9602 32.4582 99.302 31.64 101.2 29.12L99.6293 28.04C98.1893 30.0036 97.3057 30.5927 95.702 30.5927C92.3966 30.5927 91.6111 28.9236 92.822 23.4255L94.4911 15.8327C94.982 13.1818 93.1166 11.7418 89.2875 11.7745L88.7966 13.64C92.2329 13.6073 92.7238 14.5564 92.4293 16.2582L90.8257 23.4255C89.3202 30.2655 90.5638 32.4582 95.6038 32.4582ZM117.711 5.81818H110.118L104.554 32H112.311C118.103 32 120.525 28.8582 122.653 19.0727C124.747 9.12364 123.503 5.81818 117.711 5.81818ZM120.656 18.7455C118.856 27.3527 116.794 30.1345 112.54 30.1345H107.009L111.722 7.68364H117.482C121.769 7.68364 122.456 10.3018 120.656 18.7455ZM132.356 30.4945C130.294 30.4945 128.559 28.8909 128.559 26.6C128.559 26.24 128.559 25.88 128.592 25.52C133.436 24.08 141.356 22.1818 141.356 15.6364C141.356 12.6582 139.654 11.3164 136.905 11.3164C131.439 11.3164 127.447 16.4545 126.727 24.0145C125.516 24.4073 124.599 24.8327 124.174 25.3564L125.09 26.9927C125.385 26.6982 125.909 26.4036 126.596 26.1418V26.5345C126.596 30.0364 128.985 32.4582 132.094 32.4582C134.778 32.4582 138.018 31.1491 140.145 29.1527L139.163 27.4836C137.33 29.2836 134.581 30.4945 132.356 30.4945ZM136.807 13.1818C138.149 13.1818 139.392 14.0327 139.392 15.7345C139.392 20.6436 133.305 22.1491 128.756 23.4255C129.574 17.2727 132.716 13.1818 136.807 13.1818ZM150.077 32H152.106C155.805 25.16 161.532 18.5818 163.168 11.7745H161.074C159.928 17.4036 154.986 23.1309 151.779 28.8582L149.586 11.7745H147.557L150.077 32ZM189.46 1.76C192.532 1.76 194.74 2.18 196.084 3.02C197.452 3.86 198.136 5.264 198.136 7.232C198.136 7.472 198.112 7.856 198.064 8.384L197.524 13.568L197.488 14.036C197.488 16.076 199.156 17.096 202.492 17.096V21.704C199.156 21.704 197.488 22.724 197.488 24.764L197.524 25.232L198.064 30.38C198.112 30.956 198.136 31.364 198.136 31.604C198.136 33.572 197.452 34.964 196.084 35.78C194.716 36.62 192.508 37.04 189.46 37.04V33.08C190.66 33.08 191.536 32.912 192.088 32.576C192.664 32.264 192.904 31.676 192.808 30.812L192.268 25.484C192.244 25.268 192.232 24.968 192.232 24.584C192.232 23 192.712 21.812 193.672 21.02C194.656 20.204 196.06 19.664 197.884 19.4C195.988 19.112 194.572 18.584 193.636 17.816C192.7 17.048 192.232 15.872 192.232 14.288C192.232 13.856 192.244 13.532 192.268 13.316L192.808 7.988C192.904 7.148 192.664 6.56 192.088 6.224C191.512 5.888 190.636 5.72 189.46 5.72V1.76Z" fill="black"/>
<path d="M18.812 5.72V6.72H19.812V5.72H18.812ZM16.148 6.224L16.6401 7.09464L16.6519 7.08778L16.148 6.224ZM15.464 7.988L16.4589 7.88716L16.4579 7.87757L15.464 7.988ZM16.004 13.316L15.0091 13.4168L15.0101 13.4264L16.004 13.316ZM14.564 17.816L15.2004 18.5874L15.2023 18.5858L14.564 17.816ZM10.424 19.4L10.2789 18.4106L10.2738 20.3887L10.424 19.4ZM16.004 25.484L16.9989 25.5848L16.999 25.5835L16.004 25.484ZM15.464 30.812L16.4576 30.9256L16.4589 30.9128L15.464 30.812ZM16.184 32.576L16.6879 31.7122L16.6879 31.7122L16.184 32.576ZM18.812 33.08H19.812V32.08H18.812V33.08ZM18.812 37.04V38.04H19.812V37.04H18.812ZM12.152 35.78L11.622 36.628L11.6287 36.6322L12.152 35.78ZM10.208 30.416L9.2133 30.3124L9.21211 30.3255L10.208 30.416ZM10.748 25.232L11.7426 25.3356L11.744 25.3222L11.7451 25.3087L10.748 25.232ZM10.784 24.764L11.7811 24.8407L11.784 24.8024V24.764H10.784ZM9.452 22.424L8.96636 23.2982L8.98065 23.3061L8.9952 23.3136L9.452 22.424ZM5.78 21.704H4.78V22.704H5.78V21.704ZM5.78 17.096V16.096H4.78V17.096H5.78ZM10.784 14.036H11.784V13.9976L11.7811 13.9593L10.784 14.036ZM10.748 13.568L11.7451 13.4913L11.744 13.4775L11.7425 13.4637L10.748 13.568ZM10.208 8.42L9.21145 8.50304L9.21234 8.51369L9.21346 8.52432L10.208 8.42ZM12.188 3.02L12.7003 3.87889L12.7113 3.87217L12.188 3.02ZM18.812 1.76H19.812V0.759999H18.812V1.76ZM18.812 4.72C17.5564 4.72 16.4518 4.88907 15.6441 5.36022L16.6519 7.08778C16.9962 6.88693 17.6676 6.72 18.812 6.72V4.72ZM15.6559 5.35344C14.6236 5.93695 14.3494 7.01235 14.4701 8.09843L16.4579 7.87757C16.3866 7.23565 16.5684 7.13505 16.6401 7.09456L15.6559 5.35344ZM14.4691 8.08883L15.0091 13.4168L16.9989 13.2152L16.4589 7.88716L14.4691 8.08883ZM15.0101 13.4264C15.0281 13.5882 15.04 13.8456 15.04 14.216H17.04C17.04 13.8184 17.0279 13.4758 16.9979 13.2056L15.0101 13.4264ZM15.04 14.216C15.04 15.5801 14.6268 16.4648 13.9257 17.0462L15.2023 18.5858C16.4692 17.5352 17.04 16.0199 17.04 14.216H15.04ZM13.9276 17.0446C13.159 17.6787 11.9766 18.1616 10.2789 18.4106L10.5691 20.3894C12.4714 20.1104 14.049 19.5372 15.2004 18.5874L13.9276 17.0446ZM10.2738 20.3887C12.0863 20.664 13.2995 21.1514 14.0377 21.7571L15.3063 20.2109C14.1725 19.2806 12.5537 18.712 10.5742 18.4113L10.2738 20.3887ZM14.0377 21.7571C14.6751 22.2801 15.076 23.1282 15.076 24.512H17.076C17.076 22.7278 16.5409 21.2239 15.3063 20.2109L14.0377 21.7571ZM15.076 24.512C15.076 24.6224 15.0576 24.8978 15.009 25.3845L16.999 25.5835C17.0464 25.1102 17.076 24.7376 17.076 24.512H15.076ZM15.0091 25.3832L14.4691 30.7112L16.4589 30.9128L16.9989 25.5848L15.0091 25.3832ZM14.4705 30.6985C14.4095 31.2321 14.4451 31.7683 14.6462 32.2609C14.8538 32.7696 15.212 33.1667 15.6801 33.4398L16.6879 31.7122C16.58 31.6493 16.5302 31.5844 16.4978 31.5051C16.4589 31.4097 16.4225 31.2319 16.4575 30.9255L14.4705 30.6985ZM15.6801 33.4398C16.4857 33.9097 17.576 34.08 18.812 34.08V32.08C17.696 32.08 17.0343 31.9143 16.6879 31.7122L15.6801 33.4398ZM17.812 33.08V37.04H19.812V33.08H17.812ZM18.812 36.04C15.7833 36.04 13.798 35.6172 12.6753 34.9278L11.6287 36.6322C13.242 37.6228 15.6967 38.04 18.812 38.04V36.04ZM12.682 34.932C11.7033 34.3203 11.136 33.287 11.136 31.568H9.136C9.136 33.785 9.91266 35.5597 11.622 36.628L12.682 34.932ZM11.136 31.568C11.136 31.3767 11.1562 31.0314 11.2039 30.5065L9.21211 30.3255C9.16382 30.8566 9.136 31.2793 9.136 31.568H11.136ZM11.2026 30.5196L11.7426 25.3356L9.75338 25.1284L9.21338 30.3124L11.2026 30.5196ZM11.7451 25.3087L11.7811 24.8407L9.78695 24.6873L9.75095 25.1553L11.7451 25.3087ZM11.784 24.764C11.784 24.0781 11.6455 23.4281 11.3201 22.8563C10.9913 22.2788 10.5056 21.8409 9.90881 21.5344L8.9952 23.3136C9.28643 23.4631 9.46667 23.6432 9.58194 23.8457C9.70046 24.0539 9.784 24.3459 9.784 24.764H11.784ZM9.93764 21.5498C8.86131 20.9519 7.44191 20.704 5.78 20.704V22.704C7.28609 22.704 8.31469 22.9361 8.96636 23.2982L9.93764 21.5498ZM6.78 21.704V17.096H4.78V21.704H6.78ZM5.78 18.096C7.51738 18.096 8.98833 17.8362 10.0547 17.1841C11.2012 16.483 11.784 15.3859 11.784 14.036H9.784C9.784 14.7261 9.53283 15.159 9.0113 15.4779C8.40967 15.8458 7.37862 16.096 5.78 16.096V18.096ZM11.7811 13.9593L11.7451 13.4913L9.75095 13.6447L9.78695 14.1127L11.7811 13.9593ZM11.7425 13.4637L11.2025 8.31568L9.21346 8.52432L9.75346 13.6723L11.7425 13.4637ZM11.2045 8.33695C11.1566 7.761 11.136 7.39009 11.136 7.196H9.136C9.136 7.48191 9.16345 7.927 9.21145 8.50304L11.2045 8.33695ZM11.136 7.196C11.136 5.4838 11.7092 4.46996 12.7003 3.87882L11.6757 2.16118C9.93076 3.20203 9.136 4.9722 9.136 7.196H11.136ZM12.7113 3.87217C13.8348 3.1823 15.8091 2.76 18.812 2.76V0.759999C15.7189 0.759999 13.2772 1.17769 11.6647 2.16783L12.7113 3.87217ZM17.812 1.76V5.72H19.812V1.76H17.812ZM49.9828 25.52L49.6978 24.5615L49.0482 24.7546L48.9869 25.4295L49.9828 25.52ZM48.1173 24.0145L48.4258 24.9658L49.0506 24.7632L49.1128 24.1094L48.1173 24.0145ZM45.5646 25.3564L44.7885 24.7258L44.3604 25.2527L44.6921 25.845L45.5646 25.3564ZM46.481 26.9927L45.6085 27.4813L46.2539 28.634L47.1881 27.6998L46.481 26.9927ZM47.9864 26.1418H48.9864V24.6908L47.6304 25.2073L47.9864 26.1418ZM61.5355 29.1527L62.2198 29.8819L62.8028 29.3348L62.3974 28.6457L61.5355 29.1527ZM60.5537 27.4836L61.4156 26.9766L60.7665 25.873L59.853 26.7702L60.5537 27.4836ZM50.1464 23.4255L49.1551 23.2936L48.9551 24.7983L50.4166 24.3883L50.1464 23.4255ZM53.7464 29.4945C52.2313 29.4945 50.9501 28.333 50.9501 26.6H48.9501C48.9501 29.4488 51.1379 31.4945 53.7464 31.4945V29.4945ZM50.9501 26.6C50.9501 26.2325 50.9507 25.9179 50.9787 25.6105L48.9869 25.4295C48.9494 25.8421 48.9501 26.2475 48.9501 26.6H50.9501ZM50.2678 26.4785C52.6318 25.7757 55.9647 24.906 58.6759 23.3616C61.422 21.7974 63.7464 19.4142 63.7464 15.6364H61.7464C61.7464 18.404 60.1108 20.2426 57.686 21.6238C55.2263 23.0249 52.1774 23.8243 49.6978 24.5615L50.2678 26.4785ZM63.7464 15.6364C63.7464 13.9568 63.2614 12.5737 62.229 11.6237C61.2115 10.6874 59.8181 10.3164 58.2955 10.3164V12.3164C59.522 12.3164 60.3541 12.6163 60.8747 13.0954C61.3805 13.5608 61.7464 14.3378 61.7464 15.6364H63.7464ZM58.2955 10.3164C52.0505 10.3164 47.8608 16.1606 47.1218 23.9197L49.1128 24.1094C49.8139 16.7484 53.6096 12.3164 58.2955 12.3164V10.3164ZM47.8088 23.0633C47.1788 23.2677 46.5919 23.4909 46.0925 23.7453C45.6044 23.994 45.128 24.3079 44.7885 24.7258L46.3407 25.987C46.4266 25.8812 46.6211 25.7206 47.0003 25.5274C47.3682 25.34 47.8449 25.1542 48.4258 24.9658L47.8088 23.0633ZM44.6921 25.845L45.6085 27.4813L47.3535 26.5041L46.4371 24.8678L44.6921 25.845ZM47.1881 27.6998C47.3327 27.5552 47.6985 27.3216 48.3424 27.0763L47.6304 25.2073C46.8998 25.4857 46.2183 25.8411 45.7739 26.2856L47.1881 27.6998ZM46.9864 26.1418V26.5345H48.9864V26.1418H46.9864ZM46.9864 26.5345C46.9864 30.5347 49.7708 33.4582 53.4846 33.4582V31.4582C50.9802 31.4582 48.9864 29.538 48.9864 26.5345H46.9864ZM53.4846 33.4582C56.4382 33.4582 59.919 32.0412 62.2198 29.8819L60.8512 28.4235C58.8975 30.257 55.8982 31.4582 53.4846 31.4582V33.4582ZM62.3974 28.6457L61.4156 26.9766L59.6918 27.9907L60.6736 29.6597L62.3974 28.6457ZM59.853 26.7702C58.1777 28.4155 55.6711 29.4945 53.7464 29.4945V31.4945C56.2727 31.4945 59.2642 30.1517 61.2544 28.1971L59.853 26.7702ZM58.1973 14.1818C58.6648 14.1818 59.0621 14.3303 59.3289 14.5674C59.5778 14.7887 59.7828 15.1469 59.7828 15.7345H61.7828C61.7828 14.6204 61.3659 13.7022 60.6576 13.0726C59.9671 12.4588 59.0716 12.1818 58.1973 12.1818V14.1818ZM59.7828 15.7345C59.7828 17.6678 58.6254 19.001 56.6887 20.066C54.7229 21.147 52.1971 21.8115 49.8763 22.4626L50.4166 24.3883C52.6449 23.7631 55.4372 23.0366 57.6524 21.8185C59.8965 20.5845 61.7828 18.7104 61.7828 15.7345H59.7828ZM51.1377 23.5573C51.5301 20.6061 52.4712 18.2276 53.7328 16.6118C54.9842 15.0091 56.5219 14.1818 58.1973 14.1818V12.1818C55.7818 12.1818 53.7032 13.4 52.1564 15.3809C50.6199 17.3488 49.5809 20.0921 49.1551 23.2936L51.1377 23.5573ZM72.1551 14.0655L71.1614 13.9533L73.0224 14.5633L72.1551 14.0655ZM66.6569 12.4945L65.9001 11.8409L65.4287 12.3868L65.7978 13.0063L66.6569 12.4945ZM67.5733 14.0327L66.7142 14.5445L67.419 15.7276L68.3259 14.6912L67.5733 14.0327ZM70.126 14.7527L71.1052 14.9557L71.1134 14.9165L71.1183 14.8768L70.126 14.7527ZM68.8169 21.0691L69.7533 21.4202L69.7804 21.3478L69.7961 21.272L68.8169 21.0691ZM68.6533 21.7564L69.6111 22.0437L69.6293 21.9831L69.6397 21.9208L68.6533 21.7564ZM68.4569 22.6073L69.435 22.8158L69.4421 22.7825L69.4469 22.7487L68.4569 22.6073ZM65.1842 37.9564L64.2062 37.7478L63.9485 38.9564H65.1842V37.9564ZM67.2133 37.9564V38.9564H68.0171L68.1899 38.1714L67.2133 37.9564ZM68.7842 30.8218L69.7527 30.5728L67.8076 30.6068L68.7842 30.8218ZM82.3333 22.0182L81.3541 21.8152L81.3537 21.8171L82.3333 22.0182ZM80.4351 21.7564L81.4126 21.9675L81.4132 21.9646L80.4351 21.7564ZM70.2569 23.7527L71.2364 23.9547L71.2389 23.942L70.2569 23.7527ZM70.7806 21.0364L69.8011 20.8343L69.7987 20.8471L70.7806 21.0364ZM77.5879 10.3164C75.3318 10.3164 72.5376 11.3906 71.2879 13.5676L73.0224 14.5633C73.8017 13.2058 75.7857 12.3164 77.5879 12.3164V10.3164ZM73.1488 14.1776C73.2834 12.9853 73.0545 11.9498 72.3379 11.2263C71.6432 10.525 70.6836 10.3164 69.7988 10.3164V12.3164C70.4194 12.3164 70.7525 12.4678 70.917 12.6337C71.0594 12.7775 71.2559 13.1165 71.1614 13.9533L73.1488 14.1776ZM69.7988 10.3164C69.0742 10.3164 68.3275 10.4522 67.6619 10.6969C67.0074 10.9375 66.3578 11.311 65.9001 11.8409L67.4138 13.1482C67.5779 12.9581 67.8938 12.7425 68.352 12.574C68.7992 12.4096 69.3124 12.3164 69.7988 12.3164V10.3164ZM65.7978 13.0063L66.7142 14.5445L68.4324 13.5209L67.516 11.9827L65.7978 13.0063ZM68.3259 14.6912C68.6706 14.2973 69.0076 14.1818 69.1442 14.1818V12.1818C68.2336 12.1818 67.3924 12.7209 66.8207 13.3742L68.3259 14.6912ZM69.1442 14.1818C69.2671 14.1818 69.28 14.2164 69.2461 14.1871C69.2292 14.1724 69.2122 14.1506 69.201 14.1253C69.19 14.1004 69.1915 14.0881 69.1915 14.0982H71.1915C71.1915 13.5469 70.9717 13.036 70.556 12.6757C70.1539 12.3272 69.6431 12.1818 69.1442 12.1818V14.1818ZM69.1915 14.0982C69.1915 14.1808 69.1725 14.3188 69.1338 14.6287L71.1183 14.8768C71.145 14.6631 71.1915 14.3428 71.1915 14.0982H69.1915ZM69.1468 14.5498L67.8378 20.8661L69.7961 21.272L71.1052 14.9557L69.1468 14.5498ZM67.8806 20.718C67.7421 21.0873 67.6961 21.4167 67.6669 21.592L69.6397 21.9208C69.6759 21.7033 69.6954 21.5745 69.7533 21.4202L67.8806 20.718ZM67.6955 21.469C67.5862 21.8332 67.5082 22.1773 67.467 22.4659L69.4469 22.7487C69.4711 22.579 69.524 22.3341 69.6111 22.0437L67.6955 21.469ZM67.4789 22.3987L64.2062 37.7478L66.1622 38.1649L69.435 22.8158L67.4789 22.3987ZM65.1842 38.9564H67.2133V36.9564H65.1842V38.9564ZM68.1899 38.1714L69.7608 31.0369L67.8076 30.6068L66.2367 37.7413L68.1899 38.1714ZM67.8157 31.0709C68.0979 32.1681 69.1203 32.7306 70.0243 33.0215C70.9876 33.3314 72.1822 33.4582 73.3988 33.4582V31.4582C72.2917 31.4582 71.3263 31.3395 70.6369 31.1176C69.8882 30.8767 69.7651 30.621 69.7527 30.5728L67.8157 31.0709ZM73.3988 33.4582C75.8888 33.4582 78.0641 32.2149 79.748 30.2139C81.4244 28.2218 82.6508 25.445 83.3129 22.2193L81.3537 21.8171C80.7395 24.8095 79.6259 27.2528 78.2177 28.9261C76.8171 30.5905 75.1633 31.4582 73.3988 31.4582V33.4582ZM83.3125 22.2212C83.7339 20.1884 84.0036 18.4543 84.0726 16.9969C84.1413 15.5483 84.0169 14.2912 83.582 13.2597C83.1297 12.1868 82.3669 11.4195 81.3066 10.9439C80.2867 10.4865 79.0324 10.3164 77.5879 10.3164V12.3164C78.9087 12.3164 79.839 12.4776 80.4882 12.7688C81.097 13.0419 81.4878 13.4405 81.7391 14.0366C82.0079 14.6743 82.1371 15.5894 82.0749 16.9022C82.0131 18.2062 81.7673 19.8225 81.3541 21.8152L83.3125 22.2212ZM79.4577 21.5452C78.9051 24.1027 78.0193 26.1596 76.9468 27.5527C75.8778 28.9413 74.6938 29.5927 73.4969 29.5927V31.5927C75.5074 31.5927 77.2197 30.4769 78.5316 28.7727C79.84 27.0731 80.8197 24.7119 81.4126 21.9675L79.4577 21.5452ZM73.4969 29.5927C72.5833 29.5927 71.96 29.5584 71.5184 29.4471C71.1208 29.3469 70.9805 29.2135 70.8937 29.0604C70.7731 28.8477 70.6605 28.4194 70.6991 27.5441C70.7369 26.6866 70.9119 25.528 71.2363 23.9547L69.2775 23.5508C68.9474 25.152 68.7461 26.4357 68.701 27.4559C68.6568 28.4583 68.7549 29.3432 69.1539 30.0468C69.5866 30.8102 70.2747 31.1962 71.0297 31.3865C71.7407 31.5657 72.5942 31.5927 73.4969 31.5927V29.5927ZM71.2389 23.942L71.7625 21.2256L69.7987 20.8471L69.275 23.5634L71.2389 23.942ZM71.7599 21.2385C72.384 18.214 73.2182 16.4661 74.1514 15.4751C75.036 14.5355 76.1005 14.1818 77.4897 14.1818V12.1818C75.7043 12.1818 74.0524 12.6627 72.6953 14.104C71.3866 15.4939 70.4535 17.6732 69.8012 20.8343L71.7599 21.2385ZM77.4897 14.1818C78.3925 14.1818 78.9631 14.3006 79.325 14.4839C79.6373 14.6422 79.8487 14.8743 79.9876 15.3C80.1418 15.773 80.2023 16.4833 80.115 17.5457C80.0287 18.5961 79.8058 19.9097 79.457 21.5482L81.4132 21.9646C81.7681 20.2975 82.0116 18.8866 82.1083 17.7095C82.2041 16.5445 82.1644 15.5243 81.889 14.68C81.5983 13.7885 81.0509 13.1164 80.229 12.6999C79.4567 12.3085 78.5177 12.1818 77.4897 12.1818V14.1818ZM97.3057 6.53818L98.2813 6.75769L98.2834 6.74816L98.2854 6.73858L97.3057 6.53818ZM93.3784 6.21091L94.3546 6.42784L94.3563 6.41986L94.358 6.41185L93.3784 6.21091ZM101.2 29.12L101.999 29.7217L102.627 28.8876L101.767 28.296L101.2 29.12ZM99.6293 28.04L100.196 27.216L99.3965 26.6664L98.8229 27.4486L99.6293 28.04ZM92.822 23.4255L93.7986 23.6405L93.7987 23.6402L92.822 23.4255ZM94.4911 15.8327L95.4678 16.0474L95.4714 16.0312L95.4744 16.0148L94.4911 15.8327ZM89.2875 11.7745L89.2789 10.7746L88.5149 10.7811L88.3204 11.5201L89.2875 11.7745ZM88.7966 13.64L87.8295 13.3855L87.4961 14.6524L88.8061 14.64L88.7966 13.64ZM92.4293 16.2582L93.4052 16.4765L93.4105 16.4527L93.4146 16.4287L92.4293 16.2582ZM90.8257 23.4255L89.8498 23.2071L89.849 23.2105L90.8257 23.4255ZM95.1129 9.24C95.8694 9.24 96.632 9.14427 97.2418 8.66832C97.8591 8.18651 98.1205 7.47217 98.2813 6.75769L96.33 6.31867C96.1963 6.91329 96.0649 7.04985 96.0113 7.09168C95.9502 7.13937 95.7637 7.24 95.1129 7.24V9.24ZM98.2854 6.73858C98.4453 5.95657 98.4846 5.03152 97.8706 4.33743C97.2804 3.67028 96.363 3.54182 95.5384 3.54182V5.54182C95.881 5.54182 96.1049 5.5732 96.2449 5.61306C96.3779 5.65091 96.3909 5.68331 96.3726 5.66257C96.3231 5.60666 96.4605 5.6798 96.3259 6.33779L98.2854 6.73858ZM95.5384 3.54182C94.7837 3.54182 94.021 3.63699 93.4149 4.10837C92.7948 4.59069 92.5435 5.30461 92.3988 6.00996L94.358 6.41185C94.4751 5.84085 94.6002 5.72021 94.6428 5.68708C94.6994 5.64301 94.8858 5.54182 95.5384 5.54182V3.54182ZM92.4022 5.99398C92.2264 6.78508 92.1672 7.72293 92.7759 8.4301C93.364 9.11324 94.2923 9.24 95.1129 9.24V7.24C94.7699 7.24 94.5472 7.20853 94.4091 7.16889C94.2785 7.13138 94.2703 7.10047 94.2917 7.12536C94.3169 7.15455 94.2957 7.15753 94.286 7.05501C94.275 6.93906 94.2849 6.74124 94.3546 6.42784L92.4022 5.99398ZM95.6038 33.4582C96.9103 33.4582 98.0255 33.2283 99.0877 32.5919C100.12 31.9733 101.023 31.017 101.999 29.7217L100.401 28.5183C99.4789 29.743 98.7618 30.4558 98.0599 30.8762C97.3877 31.279 96.6537 31.4582 95.6038 31.4582V33.4582ZM101.767 28.296L100.196 27.216L99.0628 28.864L100.634 29.944L101.767 28.296ZM98.8229 27.4486C98.1182 28.4096 97.6244 28.9254 97.1802 29.2155C96.78 29.4768 96.3615 29.5927 95.702 29.5927V31.5927C96.6462 31.5927 97.4713 31.4141 98.2738 30.89C99.0324 30.3946 99.7004 29.6341 100.436 28.6314L98.8229 27.4486ZM95.702 29.5927C94.9428 29.5927 94.4406 29.494 94.11 29.3398C93.8172 29.2032 93.6255 29.0094 93.4921 28.6878C93.3429 28.3282 93.2536 27.7714 93.2952 26.9132C93.3363 26.0633 93.5015 24.9895 93.7986 23.6405L91.8454 23.2104C91.5371 24.6105 91.3464 25.8072 91.2975 26.8165C91.249 27.8177 91.3357 28.7091 91.6447 29.4541C91.9694 30.2369 92.5182 30.8041 93.2645 31.1523C93.9729 31.4828 94.8085 31.5927 95.702 31.5927V29.5927ZM93.7987 23.6402L95.4678 16.0474L93.5144 15.618L91.8453 23.2108L93.7987 23.6402ZM95.4744 16.0148C95.7738 14.3979 95.3581 12.9684 94.1232 12.0079C92.9767 11.1162 91.28 10.7575 89.2789 10.7746L89.296 12.7745C91.124 12.7589 92.2746 13.1038 92.8953 13.5866C93.4277 14.0007 93.6993 14.6166 93.5078 15.6506L95.4744 16.0148ZM88.3204 11.5201L87.8295 13.3855L89.7636 13.8945L90.2545 12.029L88.3204 11.5201ZM88.8061 14.64C89.6267 14.6321 90.222 14.6841 90.6484 14.7743C91.0774 14.8651 91.2729 14.9815 91.3578 15.0549C91.4438 15.1294 91.5813 15.2941 91.4439 16.0876L93.4146 16.4287C93.5718 15.5204 93.6111 14.3597 92.6663 13.5424C92.2357 13.1699 91.6825 12.9488 91.0622 12.8176C90.4393 12.6859 89.6846 12.6315 88.787 12.64L88.8061 14.64ZM91.4534 16.0398L89.8498 23.2071L91.8015 23.6438L93.4052 16.4765L91.4534 16.0398ZM89.849 23.2105C89.4659 24.9514 89.2462 26.445 89.2285 27.7084C89.2108 28.968 89.3924 30.0724 89.879 30.9795C90.9112 32.9038 93.0111 33.4582 95.6038 33.4582V31.4582C93.1566 31.4582 92.1146 30.9162 91.6414 30.0341C91.3753 29.5381 91.2132 28.8117 91.2283 27.7365C91.2433 26.665 91.4327 25.3195 91.8023 23.6404L89.849 23.2105ZM110.118 5.81818V4.81818H109.308L109.14 5.61032L110.118 5.81818ZM104.554 32L103.576 31.7921L103.32 33H104.554V32ZM122.653 19.0727L123.63 19.2852L123.631 19.2787L122.653 19.0727ZM120.656 18.7455L119.678 18.537L119.677 18.5408L120.656 18.7455ZM107.009 30.1345L106.03 29.9291L105.777 31.1345H107.009V30.1345ZM111.722 7.68364V6.68364H110.91L110.743 7.4782L111.722 7.68364ZM117.711 4.81818H110.118V6.81818H117.711V4.81818ZM109.14 5.61032L103.576 31.7921L105.533 32.2079L111.096 6.02604L109.14 5.61032ZM104.554 33H112.311V31H104.554V33ZM112.311 33C115.426 33 117.806 32.1358 119.639 29.8279C121.391 27.6223 122.564 24.1857 123.63 19.2852L121.675 18.8603C120.613 23.7452 119.512 26.7722 118.073 28.5839C116.715 30.2933 114.989 31 112.311 31V33ZM123.631 19.2787C124.16 16.7674 124.486 14.6383 124.577 12.8555C124.668 11.0812 124.53 9.58079 124.076 8.36464C123.609 7.11356 122.815 6.18922 121.681 5.60214C120.583 5.03331 119.238 4.81818 117.711 4.81818V6.81818C119.08 6.81818 120.063 7.01623 120.761 7.37808C121.425 7.72168 121.897 8.24553 122.203 9.06445C122.522 9.9183 122.664 11.1097 122.58 12.7533C122.496 14.3885 122.193 16.4036 121.674 18.8667L123.631 19.2787ZM119.677 18.5408C118.78 22.833 117.846 25.4973 116.706 27.0844C116.152 27.8562 115.562 28.3528 114.915 28.6647C114.264 28.9788 113.494 29.1345 112.54 29.1345V31.1345C113.713 31.1345 114.796 30.9426 115.784 30.4661C116.777 29.9875 117.613 29.2506 118.331 28.2511C119.735 26.2954 120.733 23.2652 121.635 18.9502L119.677 18.5408ZM112.54 29.1345H107.009V31.1345H112.54V29.1345ZM107.988 30.34L112.7 7.88907L110.743 7.4782L106.03 29.9291L107.988 30.34ZM111.722 8.68364H117.482V6.68364H111.722V8.68364ZM117.482 8.68364C118.471 8.68364 119.112 8.83822 119.531 9.08578C119.912 9.31072 120.205 9.66812 120.389 10.3199C120.583 11.0065 120.644 11.987 120.526 13.3703C120.409 14.7428 120.125 16.4432 119.678 18.537L121.634 18.9539C122.088 16.8259 122.392 15.0327 122.519 13.5395C122.645 12.0571 122.603 10.7998 122.314 9.7765C122.015 8.71825 121.445 7.89337 120.548 7.36354C119.689 6.85632 118.636 6.68364 117.482 6.68364V8.68364ZM128.592 25.52L128.307 24.5615L127.658 24.7546L127.596 25.4295L128.592 25.52ZM126.727 24.0145L127.035 24.9658L127.66 24.7632L127.722 24.1094L126.727 24.0145ZM124.174 25.3564L123.398 24.7258L122.97 25.2527L123.301 25.845L124.174 25.3564ZM125.09 26.9927L124.218 27.4813L124.863 28.634L125.797 27.6998L125.09 26.9927ZM126.596 26.1418H127.596V24.6908L126.24 25.2073L126.596 26.1418ZM140.145 29.1527L140.829 29.8819L141.412 29.3348L141.007 28.6457L140.145 29.1527ZM139.163 27.4836L140.025 26.9766L139.376 25.873L138.462 26.7702L139.163 27.4836ZM128.756 23.4255L127.765 23.2936L127.564 24.7983L129.026 24.3883L128.756 23.4255ZM132.356 29.4945C130.841 29.4945 129.559 28.333 129.559 26.6H127.559C127.559 29.4488 129.747 31.4945 132.356 31.4945V29.4945ZM129.559 26.6C129.559 26.2325 129.56 25.9179 129.588 25.6105L127.596 25.4295C127.559 25.8421 127.559 26.2475 127.559 26.6H129.559ZM128.877 26.4785C131.241 25.7757 134.574 24.906 137.285 23.3616C140.031 21.7974 142.356 19.4142 142.356 15.6364H140.356C140.356 18.404 138.72 20.2426 136.295 21.6238C133.836 23.0249 130.787 23.8243 128.307 24.5615L128.877 26.4785ZM142.356 15.6364C142.356 13.9568 141.871 12.5737 140.838 11.6237C139.821 10.6874 138.427 10.3164 136.905 10.3164V12.3164C138.131 12.3164 138.963 12.6163 139.484 13.0954C139.99 13.5608 140.356 14.3378 140.356 15.6364H142.356ZM136.905 10.3164C130.66 10.3164 126.47 16.1606 125.731 23.9197L127.722 24.1094C128.423 16.7484 132.219 12.3164 136.905 12.3164V10.3164ZM126.418 23.0633C125.788 23.2677 125.201 23.4909 124.702 23.7453C124.214 23.994 123.737 24.3079 123.398 24.7258L124.95 25.987C125.036 25.8812 125.231 25.7206 125.61 25.5274C125.978 25.34 126.454 25.1542 127.035 24.9658L126.418 23.0633ZM123.301 25.845L124.218 27.4813L125.963 26.5041L125.046 24.8678L123.301 25.845ZM125.797 27.6998C125.942 27.5552 126.308 27.3216 126.952 27.0763L126.24 25.2073C125.509 25.4857 124.828 25.8411 124.383 26.2856L125.797 27.6998ZM125.596 26.1418V26.5345H127.596V26.1418H125.596ZM125.596 26.5345C125.596 30.5347 128.38 33.4582 132.094 33.4582V31.4582C129.59 31.4582 127.596 29.538 127.596 26.5345H125.596ZM132.094 33.4582C135.048 33.4582 138.528 32.0412 140.829 29.8819L139.461 28.4235C137.507 30.257 134.508 31.4582 132.094 31.4582V33.4582ZM141.007 28.6457L140.025 26.9766L138.301 27.9907L139.283 29.6597L141.007 28.6457ZM138.462 26.7702C136.787 28.4155 134.28 29.4945 132.356 29.4945V31.4945C134.882 31.4945 137.874 30.1517 139.864 28.1971L138.462 26.7702ZM136.807 14.1818C137.274 14.1818 137.671 14.3303 137.938 14.5674C138.187 14.7887 138.392 15.1469 138.392 15.7345H140.392C140.392 14.6204 139.975 13.7022 139.267 13.0726C138.576 12.4588 137.681 12.1818 136.807 12.1818V14.1818ZM138.392 15.7345C138.392 17.6678 137.235 19.001 135.298 20.066C133.332 21.147 130.806 21.8115 128.486 22.4626L129.026 24.3883C131.254 23.7631 134.047 23.0366 136.262 21.8185C138.506 20.5845 140.392 18.7104 140.392 15.7345H138.392ZM129.747 23.5573C130.14 20.6061 131.081 18.2276 132.342 16.6118C133.594 15.0091 135.131 14.1818 136.807 14.1818V12.1818C134.391 12.1818 132.313 13.4 130.766 15.3809C129.229 17.3488 128.19 20.0921 127.765 23.2936L129.747 23.5573ZM150.077 32L149.085 32.1236L149.194 33H150.077V32ZM152.106 32V33H152.702L152.986 32.4756L152.106 32ZM163.168 11.7745L164.14 12.0083L164.437 10.7745H163.168V11.7745ZM161.074 11.7745V10.7745H160.257L160.094 11.5751L161.074 11.7745ZM151.779 28.8582L150.787 28.9855L151.173 31.9879L152.652 29.3468L151.779 28.8582ZM149.586 11.7745L150.578 11.6472L150.466 10.7745H149.586V11.7745ZM147.557 11.7745V10.7745H146.425L146.565 11.8982L147.557 11.7745ZM150.077 33H152.106V31H150.077V33ZM152.986 32.4756C154.816 29.0907 157.119 25.8207 159.258 22.4058C161.365 19.0426 163.282 15.58 164.14 12.0083L162.196 11.5408C161.418 14.7763 159.654 18.0065 157.563 21.3442C155.505 24.6302 153.095 28.0693 151.227 31.5244L152.986 32.4756ZM163.168 10.7745H161.074V12.7745H163.168V10.7745ZM160.094 11.5751C159.559 14.2023 158.122 16.9125 156.351 19.7501C154.622 22.5209 152.52 25.4878 150.907 28.3696L152.652 29.3468C154.245 26.5013 156.218 23.7409 158.048 20.809C159.836 17.9439 161.443 14.9759 162.054 11.9739L160.094 11.5751ZM152.771 28.7309L150.578 11.6472L148.594 11.9019L150.787 28.9855L152.771 28.7309ZM149.586 10.7745H147.557V12.7745H149.586V10.7745ZM146.565 11.8982L149.085 32.1236L151.07 31.8764L148.55 11.6509L146.565 11.8982ZM189.46 1.76V0.759999H188.46V1.76H189.46ZM196.084 3.02L195.554 3.86802L195.561 3.87217L196.084 3.02ZM198.064 8.384L199.059 8.48761L199.06 8.47454L198.064 8.384ZM197.524 13.568L196.529 13.4644L196.528 13.4778L196.527 13.4913L197.524 13.568ZM197.488 14.036L196.491 13.9593L196.488 13.9976V14.036H197.488ZM202.492 17.096H203.492V16.096H202.492V17.096ZM202.492 21.704V22.704H203.492V21.704H202.492ZM197.488 24.764H196.488V24.8024L196.491 24.8407L197.488 24.764ZM197.524 25.232L196.527 25.3087L196.528 25.3225L196.529 25.3363L197.524 25.232ZM198.064 30.38L199.06 30.297L199.06 30.2863L199.058 30.2757L198.064 30.38ZM196.084 35.78L195.572 34.9211L195.561 34.9278L196.084 35.78ZM189.46 37.04H188.46V38.04H189.46V37.04ZM189.46 33.08V32.08H188.46V33.08H189.46ZM192.088 32.576L191.612 31.6967L191.589 31.7087L191.568 31.7218L192.088 32.576ZM192.808 30.812L191.813 30.9128L191.814 30.9224L192.808 30.812ZM192.268 25.484L193.263 25.3832L193.262 25.3736L192.268 25.484ZM193.672 21.02L194.308 21.7914L194.31 21.7898L193.672 21.02ZM197.884 19.4L198.027 20.3897L198.034 18.4113L197.884 19.4ZM192.268 13.316L193.262 13.4264L193.263 13.4168L192.268 13.316ZM192.808 7.988L191.814 7.87444L191.813 7.88716L192.808 7.988ZM192.088 6.224L192.592 5.36022L192.592 5.36022L192.088 6.224ZM189.46 5.72H188.46V6.72H189.46V5.72ZM189.46 2.76C192.491 2.76 194.459 3.18369 195.554 3.868L196.614 2.172C195.021 1.1763 192.573 0.759999 189.46 0.759999V2.76ZM195.561 3.87217C196.562 4.48726 197.136 5.5206 197.136 7.232H199.136C199.136 5.00739 198.341 3.23274 196.607 2.16783L195.561 3.87217ZM197.136 7.232C197.136 7.42326 197.116 7.76857 197.068 8.29346L199.06 8.47454C199.108 7.94343 199.136 7.52074 199.136 7.232H197.136ZM197.069 8.28039L196.529 13.4644L198.518 13.6716L199.058 8.48761L197.069 8.28039ZM196.527 13.4913L196.491 13.9593L198.485 14.1127L198.521 13.6447L196.527 13.4913ZM196.488 14.036C196.488 15.3859 197.071 16.483 198.217 17.1841C199.284 17.8362 200.754 18.096 202.492 18.096V16.096C200.893 16.096 199.862 15.8458 199.261 15.4779C198.739 15.159 198.488 14.7261 198.488 14.036H196.488ZM201.492 17.096V21.704H203.492V17.096H201.492ZM202.492 20.704C200.754 20.704 199.284 20.9638 198.217 21.6159C197.071 22.317 196.488 23.4141 196.488 24.764H198.488C198.488 24.0739 198.739 23.641 199.261 23.3221C199.862 22.9542 200.893 22.704 202.492 22.704V20.704ZM196.491 24.8407L196.527 25.3087L198.521 25.1553L198.485 24.6873L196.491 24.8407ZM196.529 25.3363L197.069 30.4843L199.058 30.2757L198.518 25.1277L196.529 25.3363ZM197.067 30.463C197.115 31.039 197.136 31.4099 197.136 31.604H199.136C199.136 31.3181 199.108 30.873 199.06 30.297L197.067 30.463ZM197.136 31.604C197.136 33.3162 196.563 34.33 195.572 34.9212L196.596 36.6388C198.341 35.598 199.136 33.8278 199.136 31.604H197.136ZM195.561 34.9278C194.437 35.6177 192.463 36.04 189.46 36.04V38.04C192.553 38.04 194.995 37.6223 196.607 36.6322L195.561 34.9278ZM190.46 37.04V33.08H188.46V37.04H190.46ZM189.46 34.08C190.71 34.08 191.815 33.9129 192.608 33.4302L191.568 31.7218C191.257 31.9111 190.61 32.08 189.46 32.08V34.08ZM192.564 33.4553C193.049 33.1929 193.415 32.7942 193.626 32.2789C193.828 31.7839 193.862 31.2412 193.802 30.7016L191.814 30.9224C191.85 31.2468 191.812 31.4301 191.774 31.5231C191.744 31.5958 191.703 31.6471 191.612 31.6967L192.564 33.4553ZM193.803 30.7112L193.263 25.3832L191.273 25.5848L191.813 30.9128L193.803 30.7112ZM193.262 25.3736C193.244 25.2118 193.232 24.9544 193.232 24.584H191.232C191.232 24.9816 191.244 25.3242 191.274 25.5944L193.262 25.3736ZM193.232 24.584C193.232 23.2103 193.639 22.3436 194.308 21.7914L193.035 20.2486C191.785 21.2804 191.232 22.7897 191.232 24.584H193.232ZM194.31 21.7898C195.103 21.1321 196.309 20.6383 198.027 20.3897L197.741 18.4103C195.811 18.6897 194.208 19.2759 193.034 20.2502L194.31 21.7898ZM198.034 18.4113C196.222 18.136 195.008 17.6486 194.27 17.0429L193.002 18.5891C194.135 19.5194 195.754 20.088 197.734 20.3887L198.034 18.4113ZM194.27 17.0429C193.633 16.5199 193.232 15.6718 193.232 14.288H191.232C191.232 16.0722 191.767 17.5761 193.002 18.5891L194.27 17.0429ZM193.232 14.288C193.232 13.8644 193.244 13.5855 193.262 13.4264L191.274 13.2056C191.244 13.4785 191.232 13.8476 191.232 14.288H193.232ZM193.263 13.4168L193.803 8.08883L191.813 7.88716L191.273 13.2152L193.263 13.4168ZM193.801 8.10154C193.862 7.56789 193.827 7.03167 193.626 6.5391C193.418 6.0304 193.06 5.63331 192.592 5.36022L191.584 7.08778C191.692 7.15069 191.742 7.2156 191.774 7.2949C191.813 7.39033 191.849 7.5681 191.814 7.87445L193.801 8.10154ZM192.592 5.36022C191.786 4.89032 190.696 4.72 189.46 4.72V6.72C190.576 6.72 191.238 6.88568 191.584 7.08778L192.592 5.36022ZM190.46 5.72V1.76H188.46V5.72H190.46Z" fill="black"/>
</g>
<defs>
<filter id="filter0_d" x="0.779999" y="0.76001" width="206.712" height="46.1964" filterUnits="userSpaceOnUse" color-interpolation-filters="sRGB">
<feFlood flood-opacity="0" result="BackgroundImageFix"/>
<feColorMatrix in="SourceAlpha" type="matrix" values="0 0 0 0 0 0 0 0 0 0 0 0 0 0 0 0 0 0 127 0"/>
<feOffset dy="4"/>
<feGaussianBlur stdDeviation="2"/>
<feColorMatrix type="matrix" values="0 0 0 0 0 0 0 0 0 0 0 0 0 0 0 0 0 0 0.25 0"/>
<feBlend mode="normal" in2="BackgroundImageFix" result="effect1_dropShadow"/>
<feBlend mode="normal" in="SourceGraphic" in2="effect1_dropShadow" result="shape"/>
</filter>
</defs>
</svg>
